<mxfile host="app.diagrams.net" modified="2024-03-30T04:46:46.797Z" agent="Mozilla/5.0 (Macintosh; Intel Mac OS X 10_15_7) AppleWebKit/537.36 (KHTML, like Gecko) Chrome/117.0.0.0 Safari/537.36" etag="iEabYXRGHEfVdraSAuGL" version="24.1.0" type="github" pages="5">
  <diagram name="第 1 页" id="aW2vZZI7DCSMDy1CgaOs">
    <mxGraphModel dx="905" dy="672" grid="0" gridSize="10" guides="1" tooltips="1" connect="1" arrows="1" fold="1" page="1" pageScale="1" pageWidth="827" pageHeight="1169" math="0" shadow="0">
      <root>
        <mxCell id="0" />
        <mxCell id="1" parent="0" />
        <mxCell id="_Dlw__QjHstHQnxz7mJR-1" value="&lt;font style=&quot;font-size: 14px;&quot;&gt;0&lt;/font&gt;" style="rounded=0;whiteSpace=wrap;html=1;fillColor=#fff2cc;strokeColor=#d6b656;" parent="1" vertex="1">
          <mxGeometry x="71" y="54" width="96" height="30" as="geometry" />
        </mxCell>
        <mxCell id="_Dlw__QjHstHQnxz7mJR-2" value="&lt;font style=&quot;font-size: 14px;&quot;&gt;1&lt;/font&gt;" style="rounded=0;whiteSpace=wrap;html=1;fillColor=#fff2cc;strokeColor=#d6b656;" parent="1" vertex="1">
          <mxGeometry x="71" y="86" width="96" height="30" as="geometry" />
        </mxCell>
        <mxCell id="_Dlw__QjHstHQnxz7mJR-3" value="&lt;font style=&quot;font-size: 14px;&quot;&gt;2&lt;/font&gt;" style="rounded=0;whiteSpace=wrap;html=1;fillColor=#fff2cc;strokeColor=#d6b656;" parent="1" vertex="1">
          <mxGeometry x="71" y="118" width="96" height="30" as="geometry" />
        </mxCell>
        <mxCell id="_Dlw__QjHstHQnxz7mJR-4" value="&lt;font style=&quot;font-size: 14px;&quot;&gt;0&lt;/font&gt;" style="rounded=0;whiteSpace=wrap;html=1;fillColor=#fff2cc;strokeColor=#d6b656;" parent="1" vertex="1">
          <mxGeometry x="183" y="54" width="96" height="30" as="geometry" />
        </mxCell>
        <mxCell id="_Dlw__QjHstHQnxz7mJR-5" value="&lt;font style=&quot;font-size: 14px;&quot;&gt;1&lt;/font&gt;" style="rounded=0;whiteSpace=wrap;html=1;fillColor=#fff2cc;strokeColor=#d6b656;" parent="1" vertex="1">
          <mxGeometry x="183" y="86" width="96" height="30" as="geometry" />
        </mxCell>
        <mxCell id="_Dlw__QjHstHQnxz7mJR-6" value="&lt;font style=&quot;font-size: 14px;&quot;&gt;2&lt;/font&gt;" style="rounded=0;whiteSpace=wrap;html=1;fillColor=#fff2cc;strokeColor=#d6b656;" parent="1" vertex="1">
          <mxGeometry x="183" y="118" width="96" height="30" as="geometry" />
        </mxCell>
        <mxCell id="_Dlw__QjHstHQnxz7mJR-7" value="&lt;font style=&quot;font-size: 14px;&quot;&gt;0&lt;/font&gt;" style="rounded=0;whiteSpace=wrap;html=1;fillColor=#fff2cc;strokeColor=#d6b656;" parent="1" vertex="1">
          <mxGeometry x="304" y="54" width="96" height="30" as="geometry" />
        </mxCell>
        <mxCell id="_Dlw__QjHstHQnxz7mJR-8" value="&lt;font style=&quot;font-size: 14px;&quot;&gt;1&lt;/font&gt;" style="rounded=0;whiteSpace=wrap;html=1;fillColor=#fff2cc;strokeColor=#d6b656;" parent="1" vertex="1">
          <mxGeometry x="304" y="86" width="96" height="30" as="geometry" />
        </mxCell>
        <mxCell id="_Dlw__QjHstHQnxz7mJR-9" value="&lt;font style=&quot;font-size: 14px;&quot;&gt;2&lt;/font&gt;" style="rounded=0;whiteSpace=wrap;html=1;fillColor=#fff2cc;strokeColor=#d6b656;" parent="1" vertex="1">
          <mxGeometry x="304" y="118" width="96" height="30" as="geometry" />
        </mxCell>
        <mxCell id="_Dlw__QjHstHQnxz7mJR-21" style="edgeStyle=orthogonalEdgeStyle;rounded=0;orthogonalLoop=1;jettySize=auto;html=1;" parent="1" source="_Dlw__QjHstHQnxz7mJR-10" edge="1">
          <mxGeometry relative="1" as="geometry">
            <mxPoint x="120" y="185.60000000000005" as="targetPoint" />
          </mxGeometry>
        </mxCell>
        <mxCell id="_Dlw__QjHstHQnxz7mJR-10" value="&lt;font style=&quot;font-size: 14px;&quot;&gt;3&lt;/font&gt;" style="rounded=0;whiteSpace=wrap;html=1;fillColor=#dae8fc;strokeColor=#6c8ebf;" parent="1" vertex="1">
          <mxGeometry x="72" y="234.4" width="96" height="32" as="geometry" />
        </mxCell>
        <mxCell id="_Dlw__QjHstHQnxz7mJR-11" value="&lt;font style=&quot;font-size: 14px;&quot;&gt;4&lt;/font&gt;" style="rounded=0;whiteSpace=wrap;html=1;fillColor=#dae8fc;strokeColor=#6c8ebf;" parent="1" vertex="1">
          <mxGeometry x="72" y="268.40000000000003" width="96" height="32" as="geometry" />
        </mxCell>
        <mxCell id="_Dlw__QjHstHQnxz7mJR-15" value="&lt;font style=&quot;font-size: 14px;&quot;&gt;startOffset&lt;/font&gt;" style="text;html=1;align=center;verticalAlign=middle;whiteSpace=wrap;rounded=0;" parent="1" vertex="1">
          <mxGeometry x="5" y="52" width="60" height="30" as="geometry" />
        </mxCell>
        <mxCell id="_Dlw__QjHstHQnxz7mJR-16" value="&lt;font style=&quot;font-size: 14px;&quot;&gt;HW/LEO&lt;/font&gt;" style="text;html=1;align=center;verticalAlign=middle;whiteSpace=wrap;rounded=0;" parent="1" vertex="1">
          <mxGeometry x="3" y="151" width="60" height="30" as="geometry" />
        </mxCell>
        <mxCell id="_Dlw__QjHstHQnxz7mJR-17" value="&lt;span style=&quot;font-size: 14px;&quot;&gt;&lt;font color=&quot;#ff3333&quot;&gt;Leader&lt;/font&gt;&lt;/span&gt;" style="text;html=1;align=center;verticalAlign=middle;whiteSpace=wrap;rounded=0;" parent="1" vertex="1">
          <mxGeometry x="87" y="24" width="60" height="30" as="geometry" />
        </mxCell>
        <mxCell id="_Dlw__QjHstHQnxz7mJR-18" value="&lt;span style=&quot;font-size: 14px;&quot;&gt;&lt;font color=&quot;#ff3333&quot;&gt;Follower1&lt;/font&gt;&lt;/span&gt;" style="text;html=1;align=center;verticalAlign=middle;whiteSpace=wrap;rounded=0;" parent="1" vertex="1">
          <mxGeometry x="198" y="19" width="60" height="30" as="geometry" />
        </mxCell>
        <mxCell id="_Dlw__QjHstHQnxz7mJR-19" value="&lt;span style=&quot;font-size: 14px;&quot;&gt;&lt;font color=&quot;#ff3333&quot;&gt;Follower2&lt;/font&gt;&lt;/span&gt;" style="text;html=1;align=center;verticalAlign=middle;whiteSpace=wrap;rounded=0;" parent="1" vertex="1">
          <mxGeometry x="322" y="22" width="60" height="30" as="geometry" />
        </mxCell>
        <mxCell id="_Dlw__QjHstHQnxz7mJR-22" value="往Leader副本写入消息3和4" style="text;html=1;align=center;verticalAlign=middle;whiteSpace=wrap;rounded=0;" parent="1" vertex="1">
          <mxGeometry x="35" y="197.4" width="80" height="30" as="geometry" />
        </mxCell>
        <mxCell id="_Dlw__QjHstHQnxz7mJR-23" value="&lt;font style=&quot;font-size: 14px;&quot;&gt;0&lt;/font&gt;" style="rounded=0;whiteSpace=wrap;html=1;fillColor=#fff2cc;strokeColor=#d6b656;" parent="1" vertex="1">
          <mxGeometry x="488" y="55.4" width="96" height="30" as="geometry" />
        </mxCell>
        <mxCell id="_Dlw__QjHstHQnxz7mJR-24" value="&lt;font style=&quot;font-size: 14px;&quot;&gt;1&lt;/font&gt;" style="rounded=0;whiteSpace=wrap;html=1;fillColor=#fff2cc;strokeColor=#d6b656;" parent="1" vertex="1">
          <mxGeometry x="488" y="87.4" width="96" height="30" as="geometry" />
        </mxCell>
        <mxCell id="_Dlw__QjHstHQnxz7mJR-25" value="&lt;font style=&quot;font-size: 14px;&quot;&gt;2&lt;/font&gt;" style="rounded=0;whiteSpace=wrap;html=1;fillColor=#fff2cc;strokeColor=#d6b656;" parent="1" vertex="1">
          <mxGeometry x="488" y="119.4" width="96" height="30" as="geometry" />
        </mxCell>
        <mxCell id="_Dlw__QjHstHQnxz7mJR-26" value="&lt;font style=&quot;font-size: 14px;&quot;&gt;0&lt;/font&gt;" style="rounded=0;whiteSpace=wrap;html=1;fillColor=#fff2cc;strokeColor=#d6b656;" parent="1" vertex="1">
          <mxGeometry x="600" y="55.4" width="96" height="30" as="geometry" />
        </mxCell>
        <mxCell id="_Dlw__QjHstHQnxz7mJR-27" value="&lt;font style=&quot;font-size: 14px;&quot;&gt;1&lt;/font&gt;" style="rounded=0;whiteSpace=wrap;html=1;fillColor=#fff2cc;strokeColor=#d6b656;" parent="1" vertex="1">
          <mxGeometry x="600" y="87.4" width="96" height="30" as="geometry" />
        </mxCell>
        <mxCell id="_Dlw__QjHstHQnxz7mJR-28" value="&lt;font style=&quot;font-size: 14px;&quot;&gt;2&lt;/font&gt;" style="rounded=0;whiteSpace=wrap;html=1;fillColor=#fff2cc;strokeColor=#d6b656;" parent="1" vertex="1">
          <mxGeometry x="600" y="119.4" width="96" height="30" as="geometry" />
        </mxCell>
        <mxCell id="_Dlw__QjHstHQnxz7mJR-29" value="&lt;font style=&quot;font-size: 14px;&quot;&gt;0&lt;/font&gt;" style="rounded=0;whiteSpace=wrap;html=1;fillColor=#fff2cc;strokeColor=#d6b656;" parent="1" vertex="1">
          <mxGeometry x="720" y="55.4" width="96" height="30" as="geometry" />
        </mxCell>
        <mxCell id="_Dlw__QjHstHQnxz7mJR-30" value="&lt;font style=&quot;font-size: 14px;&quot;&gt;1&lt;/font&gt;" style="rounded=0;whiteSpace=wrap;html=1;fillColor=#fff2cc;strokeColor=#d6b656;" parent="1" vertex="1">
          <mxGeometry x="720" y="87.4" width="96" height="30" as="geometry" />
        </mxCell>
        <mxCell id="_Dlw__QjHstHQnxz7mJR-31" value="&lt;font style=&quot;font-size: 14px;&quot;&gt;2&lt;/font&gt;" style="rounded=0;whiteSpace=wrap;html=1;fillColor=#fff2cc;strokeColor=#d6b656;" parent="1" vertex="1">
          <mxGeometry x="720" y="119.4" width="96" height="30" as="geometry" />
        </mxCell>
        <mxCell id="_Dlw__QjHstHQnxz7mJR-33" value="&lt;font style=&quot;font-size: 14px;&quot;&gt;3&lt;/font&gt;" style="rounded=0;whiteSpace=wrap;html=1;fillColor=#dae8fc;strokeColor=#6c8ebf;" parent="1" vertex="1">
          <mxGeometry x="488" y="152.4" width="96" height="32" as="geometry" />
        </mxCell>
        <mxCell id="_Dlw__QjHstHQnxz7mJR-34" value="&lt;font style=&quot;font-size: 14px;&quot;&gt;4&lt;/font&gt;" style="rounded=0;whiteSpace=wrap;html=1;fillColor=#dae8fc;strokeColor=#6c8ebf;" parent="1" vertex="1">
          <mxGeometry x="488" y="186.4" width="96" height="32" as="geometry" />
        </mxCell>
        <mxCell id="_Dlw__QjHstHQnxz7mJR-35" value="&lt;font style=&quot;font-size: 14px;&quot;&gt;startOffset&lt;/font&gt;" style="text;html=1;align=center;verticalAlign=middle;whiteSpace=wrap;rounded=0;" parent="1" vertex="1">
          <mxGeometry x="422" y="55.4" width="60" height="30" as="geometry" />
        </mxCell>
        <mxCell id="_Dlw__QjHstHQnxz7mJR-36" value="&lt;font style=&quot;font-size: 14px;&quot;&gt;HW&lt;/font&gt;" style="text;html=1;align=center;verticalAlign=middle;whiteSpace=wrap;rounded=0;" parent="1" vertex="1">
          <mxGeometry x="431" y="156.4" width="60" height="30" as="geometry" />
        </mxCell>
        <mxCell id="_Dlw__QjHstHQnxz7mJR-37" value="&lt;span style=&quot;font-size: 14px;&quot;&gt;&lt;font color=&quot;#ff3333&quot;&gt;Leader&lt;/font&gt;&lt;/span&gt;" style="text;html=1;align=center;verticalAlign=middle;whiteSpace=wrap;rounded=0;" parent="1" vertex="1">
          <mxGeometry x="504" y="25.4" width="60" height="30" as="geometry" />
        </mxCell>
        <mxCell id="_Dlw__QjHstHQnxz7mJR-38" value="&lt;span style=&quot;font-size: 14px;&quot;&gt;&lt;font color=&quot;#ff3333&quot;&gt;Follower1&lt;/font&gt;&lt;/span&gt;" style="text;html=1;align=center;verticalAlign=middle;whiteSpace=wrap;rounded=0;" parent="1" vertex="1">
          <mxGeometry x="615" y="20.4" width="60" height="30" as="geometry" />
        </mxCell>
        <mxCell id="_Dlw__QjHstHQnxz7mJR-39" value="&lt;span style=&quot;font-size: 14px;&quot;&gt;&lt;font color=&quot;#ff3333&quot;&gt;Follower2&lt;/font&gt;&lt;/span&gt;" style="text;html=1;align=center;verticalAlign=middle;whiteSpace=wrap;rounded=0;" parent="1" vertex="1">
          <mxGeometry x="738" y="23.4" width="60" height="30" as="geometry" />
        </mxCell>
        <mxCell id="_Dlw__QjHstHQnxz7mJR-40" value="follower副本进行同步" style="text;html=1;align=center;verticalAlign=middle;whiteSpace=wrap;rounded=0;" parent="1" vertex="1">
          <mxGeometry x="668" y="170.4" width="80" height="30" as="geometry" />
        </mxCell>
        <mxCell id="_Dlw__QjHstHQnxz7mJR-47" value="" style="curved=1;endArrow=classic;html=1;rounded=0;exitX=0.5;exitY=1;exitDx=0;exitDy=0;entryX=1;entryY=0.75;entryDx=0;entryDy=0;" parent="1" source="_Dlw__QjHstHQnxz7mJR-28" target="_Dlw__QjHstHQnxz7mJR-34" edge="1">
          <mxGeometry width="50" height="50" relative="1" as="geometry">
            <mxPoint x="673" y="233.4" as="sourcePoint" />
            <mxPoint x="723" y="183.4" as="targetPoint" />
            <Array as="points">
              <mxPoint x="636" y="185.4" />
              <mxPoint x="673" y="183.4" />
              <mxPoint x="620" y="217.4" />
            </Array>
          </mxGeometry>
        </mxCell>
        <mxCell id="_Dlw__QjHstHQnxz7mJR-48" value="" style="curved=1;endArrow=classic;html=1;rounded=0;exitX=0.5;exitY=1;exitDx=0;exitDy=0;entryX=1;entryY=1;entryDx=0;entryDy=0;" parent="1" source="_Dlw__QjHstHQnxz7mJR-31" target="_Dlw__QjHstHQnxz7mJR-34" edge="1">
          <mxGeometry width="50" height="50" relative="1" as="geometry">
            <mxPoint x="668" y="266.4" as="sourcePoint" />
            <mxPoint x="718" y="216.4" as="targetPoint" />
            <Array as="points">
              <mxPoint x="718" y="266.4" />
              <mxPoint x="668" y="216.4" />
            </Array>
          </mxGeometry>
        </mxCell>
        <mxCell id="_Dlw__QjHstHQnxz7mJR-49" value="&lt;font style=&quot;font-size: 14px;&quot;&gt;0&lt;/font&gt;" style="rounded=0;whiteSpace=wrap;html=1;fillColor=#fff2cc;strokeColor=#d6b656;" parent="1" vertex="1">
          <mxGeometry x="67" y="438" width="96" height="30" as="geometry" />
        </mxCell>
        <mxCell id="_Dlw__QjHstHQnxz7mJR-50" value="&lt;font style=&quot;font-size: 14px;&quot;&gt;1&lt;/font&gt;" style="rounded=0;whiteSpace=wrap;html=1;fillColor=#fff2cc;strokeColor=#d6b656;" parent="1" vertex="1">
          <mxGeometry x="67" y="470" width="96" height="30" as="geometry" />
        </mxCell>
        <mxCell id="_Dlw__QjHstHQnxz7mJR-51" value="&lt;font style=&quot;font-size: 14px;&quot;&gt;2&lt;/font&gt;" style="rounded=0;whiteSpace=wrap;html=1;fillColor=#fff2cc;strokeColor=#d6b656;" parent="1" vertex="1">
          <mxGeometry x="67" y="502" width="96" height="30" as="geometry" />
        </mxCell>
        <mxCell id="_Dlw__QjHstHQnxz7mJR-52" value="&lt;font style=&quot;font-size: 14px;&quot;&gt;0&lt;/font&gt;" style="rounded=0;whiteSpace=wrap;html=1;fillColor=#fff2cc;strokeColor=#d6b656;" parent="1" vertex="1">
          <mxGeometry x="179" y="438" width="96" height="30" as="geometry" />
        </mxCell>
        <mxCell id="_Dlw__QjHstHQnxz7mJR-53" value="&lt;font style=&quot;font-size: 14px;&quot;&gt;1&lt;/font&gt;" style="rounded=0;whiteSpace=wrap;html=1;fillColor=#fff2cc;strokeColor=#d6b656;" parent="1" vertex="1">
          <mxGeometry x="179" y="470" width="96" height="30" as="geometry" />
        </mxCell>
        <mxCell id="_Dlw__QjHstHQnxz7mJR-54" value="&lt;font style=&quot;font-size: 14px;&quot;&gt;2&lt;/font&gt;" style="rounded=0;whiteSpace=wrap;html=1;fillColor=#fff2cc;strokeColor=#d6b656;" parent="1" vertex="1">
          <mxGeometry x="179" y="502" width="96" height="30" as="geometry" />
        </mxCell>
        <mxCell id="_Dlw__QjHstHQnxz7mJR-55" value="&lt;font style=&quot;font-size: 14px;&quot;&gt;0&lt;/font&gt;" style="rounded=0;whiteSpace=wrap;html=1;fillColor=#fff2cc;strokeColor=#d6b656;" parent="1" vertex="1">
          <mxGeometry x="299" y="438" width="96" height="30" as="geometry" />
        </mxCell>
        <mxCell id="_Dlw__QjHstHQnxz7mJR-56" value="&lt;font style=&quot;font-size: 14px;&quot;&gt;1&lt;/font&gt;" style="rounded=0;whiteSpace=wrap;html=1;fillColor=#fff2cc;strokeColor=#d6b656;" parent="1" vertex="1">
          <mxGeometry x="299" y="470" width="96" height="30" as="geometry" />
        </mxCell>
        <mxCell id="_Dlw__QjHstHQnxz7mJR-57" value="&lt;font style=&quot;font-size: 14px;&quot;&gt;2&lt;/font&gt;" style="rounded=0;whiteSpace=wrap;html=1;fillColor=#fff2cc;strokeColor=#d6b656;" parent="1" vertex="1">
          <mxGeometry x="299" y="502" width="96" height="30" as="geometry" />
        </mxCell>
        <mxCell id="_Dlw__QjHstHQnxz7mJR-58" value="&lt;font style=&quot;font-size: 14px;&quot;&gt;3&lt;/font&gt;" style="rounded=0;whiteSpace=wrap;html=1;fillColor=#dae8fc;strokeColor=#6c8ebf;" parent="1" vertex="1">
          <mxGeometry x="67" y="535" width="96" height="32" as="geometry" />
        </mxCell>
        <mxCell id="_Dlw__QjHstHQnxz7mJR-59" value="&lt;font style=&quot;font-size: 14px;&quot;&gt;4&lt;/font&gt;" style="rounded=0;whiteSpace=wrap;html=1;fillColor=#dae8fc;strokeColor=#6c8ebf;" parent="1" vertex="1">
          <mxGeometry x="67" y="569" width="96" height="32" as="geometry" />
        </mxCell>
        <mxCell id="_Dlw__QjHstHQnxz7mJR-60" value="&lt;font style=&quot;font-size: 14px;&quot;&gt;startOffset&lt;/font&gt;" style="text;html=1;align=center;verticalAlign=middle;whiteSpace=wrap;rounded=0;" parent="1" vertex="1">
          <mxGeometry x="5" y="437" width="60" height="30" as="geometry" />
        </mxCell>
        <mxCell id="_Dlw__QjHstHQnxz7mJR-61" value="&lt;font style=&quot;font-size: 14px;&quot;&gt;HW&lt;/font&gt;" style="text;html=1;align=center;verticalAlign=middle;whiteSpace=wrap;rounded=0;" parent="1" vertex="1">
          <mxGeometry x="11" y="567" width="60" height="30" as="geometry" />
        </mxCell>
        <mxCell id="_Dlw__QjHstHQnxz7mJR-62" value="&lt;span style=&quot;font-size: 14px;&quot;&gt;&lt;font color=&quot;#ff3333&quot;&gt;Leader&lt;/font&gt;&lt;/span&gt;" style="text;html=1;align=center;verticalAlign=middle;whiteSpace=wrap;rounded=0;" parent="1" vertex="1">
          <mxGeometry x="83" y="408" width="60" height="30" as="geometry" />
        </mxCell>
        <mxCell id="_Dlw__QjHstHQnxz7mJR-63" value="&lt;span style=&quot;font-size: 14px;&quot;&gt;&lt;font color=&quot;#ff3333&quot;&gt;Follower1&lt;/font&gt;&lt;/span&gt;" style="text;html=1;align=center;verticalAlign=middle;whiteSpace=wrap;rounded=0;" parent="1" vertex="1">
          <mxGeometry x="194" y="403" width="60" height="30" as="geometry" />
        </mxCell>
        <mxCell id="_Dlw__QjHstHQnxz7mJR-64" value="&lt;span style=&quot;font-size: 14px;&quot;&gt;&lt;font color=&quot;#ff3333&quot;&gt;Follower2&lt;/font&gt;&lt;/span&gt;" style="text;html=1;align=center;verticalAlign=middle;whiteSpace=wrap;rounded=0;" parent="1" vertex="1">
          <mxGeometry x="317" y="406" width="60" height="30" as="geometry" />
        </mxCell>
        <mxCell id="_Dlw__QjHstHQnxz7mJR-65" value="follower1副本同步完，follower2只同步了消息3" style="text;html=1;align=center;verticalAlign=middle;whiteSpace=wrap;rounded=0;" parent="1" vertex="1">
          <mxGeometry x="150" y="639" width="138" height="30" as="geometry" />
        </mxCell>
        <mxCell id="_Dlw__QjHstHQnxz7mJR-67" value="&lt;font style=&quot;font-size: 14px;&quot;&gt;3&lt;/font&gt;" style="rounded=0;whiteSpace=wrap;html=1;fillColor=#dae8fc;strokeColor=#6c8ebf;" parent="1" vertex="1">
          <mxGeometry x="179" y="535" width="96" height="32" as="geometry" />
        </mxCell>
        <mxCell id="_Dlw__QjHstHQnxz7mJR-68" value="&lt;font style=&quot;font-size: 14px;&quot;&gt;3&lt;/font&gt;" style="rounded=0;whiteSpace=wrap;html=1;fillColor=#dae8fc;strokeColor=#6c8ebf;" parent="1" vertex="1">
          <mxGeometry x="299" y="535" width="96" height="32" as="geometry" />
        </mxCell>
        <mxCell id="_Dlw__QjHstHQnxz7mJR-69" value="&lt;font style=&quot;font-size: 14px;&quot;&gt;4&lt;/font&gt;" style="rounded=0;whiteSpace=wrap;html=1;fillColor=#dae8fc;strokeColor=#6c8ebf;" parent="1" vertex="1">
          <mxGeometry x="179" y="569" width="96" height="32" as="geometry" />
        </mxCell>
        <mxCell id="_Dlw__QjHstHQnxz7mJR-70" value="&lt;font style=&quot;font-size: 14px;&quot;&gt;LEO&lt;/font&gt;" style="text;html=1;align=center;verticalAlign=middle;whiteSpace=wrap;rounded=0;" parent="1" vertex="1">
          <mxGeometry x="435" y="224.4" width="60" height="30" as="geometry" />
        </mxCell>
        <mxCell id="_Dlw__QjHstHQnxz7mJR-72" value="&lt;font style=&quot;font-size: 14px;&quot;&gt;LEO&lt;/font&gt;" style="text;html=1;align=center;verticalAlign=middle;whiteSpace=wrap;rounded=0;" parent="1" vertex="1">
          <mxGeometry x="9" y="601" width="60" height="30" as="geometry" />
        </mxCell>
        <mxCell id="_Dlw__QjHstHQnxz7mJR-73" value="&lt;font style=&quot;font-size: 14px;&quot;&gt;0&lt;/font&gt;" style="rounded=0;whiteSpace=wrap;html=1;fillColor=#fff2cc;strokeColor=#d6b656;" parent="1" vertex="1">
          <mxGeometry x="485" y="449" width="96" height="30" as="geometry" />
        </mxCell>
        <mxCell id="_Dlw__QjHstHQnxz7mJR-74" value="&lt;font style=&quot;font-size: 14px;&quot;&gt;1&lt;/font&gt;" style="rounded=0;whiteSpace=wrap;html=1;fillColor=#fff2cc;strokeColor=#d6b656;" parent="1" vertex="1">
          <mxGeometry x="485" y="481" width="96" height="30" as="geometry" />
        </mxCell>
        <mxCell id="_Dlw__QjHstHQnxz7mJR-75" value="&lt;font style=&quot;font-size: 14px;&quot;&gt;2&lt;/font&gt;" style="rounded=0;whiteSpace=wrap;html=1;fillColor=#fff2cc;strokeColor=#d6b656;" parent="1" vertex="1">
          <mxGeometry x="485" y="513" width="96" height="30" as="geometry" />
        </mxCell>
        <mxCell id="_Dlw__QjHstHQnxz7mJR-76" value="&lt;font style=&quot;font-size: 14px;&quot;&gt;0&lt;/font&gt;" style="rounded=0;whiteSpace=wrap;html=1;fillColor=#fff2cc;strokeColor=#d6b656;" parent="1" vertex="1">
          <mxGeometry x="597" y="449" width="96" height="30" as="geometry" />
        </mxCell>
        <mxCell id="_Dlw__QjHstHQnxz7mJR-77" value="&lt;font style=&quot;font-size: 14px;&quot;&gt;1&lt;/font&gt;" style="rounded=0;whiteSpace=wrap;html=1;fillColor=#fff2cc;strokeColor=#d6b656;" parent="1" vertex="1">
          <mxGeometry x="597" y="481" width="96" height="30" as="geometry" />
        </mxCell>
        <mxCell id="_Dlw__QjHstHQnxz7mJR-78" value="&lt;font style=&quot;font-size: 14px;&quot;&gt;2&lt;/font&gt;" style="rounded=0;whiteSpace=wrap;html=1;fillColor=#fff2cc;strokeColor=#d6b656;" parent="1" vertex="1">
          <mxGeometry x="597" y="513" width="96" height="30" as="geometry" />
        </mxCell>
        <mxCell id="_Dlw__QjHstHQnxz7mJR-79" value="&lt;font style=&quot;font-size: 14px;&quot;&gt;0&lt;/font&gt;" style="rounded=0;whiteSpace=wrap;html=1;fillColor=#fff2cc;strokeColor=#d6b656;" parent="1" vertex="1">
          <mxGeometry x="717" y="449" width="96" height="30" as="geometry" />
        </mxCell>
        <mxCell id="_Dlw__QjHstHQnxz7mJR-80" value="&lt;font style=&quot;font-size: 14px;&quot;&gt;1&lt;/font&gt;" style="rounded=0;whiteSpace=wrap;html=1;fillColor=#fff2cc;strokeColor=#d6b656;" parent="1" vertex="1">
          <mxGeometry x="717" y="481" width="96" height="30" as="geometry" />
        </mxCell>
        <mxCell id="_Dlw__QjHstHQnxz7mJR-81" value="&lt;font style=&quot;font-size: 14px;&quot;&gt;2&lt;/font&gt;" style="rounded=0;whiteSpace=wrap;html=1;fillColor=#fff2cc;strokeColor=#d6b656;" parent="1" vertex="1">
          <mxGeometry x="717" y="513" width="96" height="30" as="geometry" />
        </mxCell>
        <mxCell id="_Dlw__QjHstHQnxz7mJR-82" value="&lt;font style=&quot;font-size: 14px;&quot;&gt;3&lt;/font&gt;" style="rounded=0;whiteSpace=wrap;html=1;fillColor=#dae8fc;strokeColor=#6c8ebf;" parent="1" vertex="1">
          <mxGeometry x="485" y="546" width="96" height="32" as="geometry" />
        </mxCell>
        <mxCell id="_Dlw__QjHstHQnxz7mJR-83" value="&lt;font style=&quot;font-size: 14px;&quot;&gt;4&lt;/font&gt;" style="rounded=0;whiteSpace=wrap;html=1;fillColor=#dae8fc;strokeColor=#6c8ebf;" parent="1" vertex="1">
          <mxGeometry x="485" y="580" width="96" height="32" as="geometry" />
        </mxCell>
        <mxCell id="_Dlw__QjHstHQnxz7mJR-84" value="&lt;font style=&quot;font-size: 14px;&quot;&gt;startOffset&lt;/font&gt;" style="text;html=1;align=center;verticalAlign=middle;whiteSpace=wrap;rounded=0;" parent="1" vertex="1">
          <mxGeometry x="419" y="449" width="60" height="30" as="geometry" />
        </mxCell>
        <mxCell id="_Dlw__QjHstHQnxz7mJR-86" value="&lt;span style=&quot;font-size: 14px;&quot;&gt;&lt;font color=&quot;#ff3333&quot;&gt;Leader&lt;/font&gt;&lt;/span&gt;" style="text;html=1;align=center;verticalAlign=middle;whiteSpace=wrap;rounded=0;" parent="1" vertex="1">
          <mxGeometry x="501" y="419" width="60" height="30" as="geometry" />
        </mxCell>
        <mxCell id="_Dlw__QjHstHQnxz7mJR-87" value="&lt;span style=&quot;font-size: 14px;&quot;&gt;&lt;font color=&quot;#ff3333&quot;&gt;Follower1&lt;/font&gt;&lt;/span&gt;" style="text;html=1;align=center;verticalAlign=middle;whiteSpace=wrap;rounded=0;" parent="1" vertex="1">
          <mxGeometry x="612" y="414" width="60" height="30" as="geometry" />
        </mxCell>
        <mxCell id="_Dlw__QjHstHQnxz7mJR-88" value="&lt;span style=&quot;font-size: 14px;&quot;&gt;&lt;font color=&quot;#ff3333&quot;&gt;Follower2&lt;/font&gt;&lt;/span&gt;" style="text;html=1;align=center;verticalAlign=middle;whiteSpace=wrap;rounded=0;" parent="1" vertex="1">
          <mxGeometry x="735" y="417" width="60" height="30" as="geometry" />
        </mxCell>
        <mxCell id="_Dlw__QjHstHQnxz7mJR-89" value="两个follower完全同步完" style="text;html=1;align=center;verticalAlign=middle;whiteSpace=wrap;rounded=0;" parent="1" vertex="1">
          <mxGeometry x="649" y="649" width="138" height="30" as="geometry" />
        </mxCell>
        <mxCell id="_Dlw__QjHstHQnxz7mJR-90" value="&lt;font style=&quot;font-size: 14px;&quot;&gt;3&lt;/font&gt;" style="rounded=0;whiteSpace=wrap;html=1;fillColor=#dae8fc;strokeColor=#6c8ebf;" parent="1" vertex="1">
          <mxGeometry x="597" y="546" width="96" height="32" as="geometry" />
        </mxCell>
        <mxCell id="_Dlw__QjHstHQnxz7mJR-91" value="&lt;font style=&quot;font-size: 14px;&quot;&gt;3&lt;/font&gt;" style="rounded=0;whiteSpace=wrap;html=1;fillColor=#dae8fc;strokeColor=#6c8ebf;" parent="1" vertex="1">
          <mxGeometry x="717" y="546" width="96" height="32" as="geometry" />
        </mxCell>
        <mxCell id="_Dlw__QjHstHQnxz7mJR-92" value="&lt;font style=&quot;font-size: 14px;&quot;&gt;4&lt;/font&gt;" style="rounded=0;whiteSpace=wrap;html=1;fillColor=#dae8fc;strokeColor=#6c8ebf;" parent="1" vertex="1">
          <mxGeometry x="597" y="580" width="96" height="32" as="geometry" />
        </mxCell>
        <mxCell id="_Dlw__QjHstHQnxz7mJR-94" value="&lt;font style=&quot;font-size: 14px;&quot;&gt;4&lt;/font&gt;" style="rounded=0;whiteSpace=wrap;html=1;fillColor=#dae8fc;strokeColor=#6c8ebf;" parent="1" vertex="1">
          <mxGeometry x="717" y="580" width="96" height="32" as="geometry" />
        </mxCell>
        <mxCell id="_Dlw__QjHstHQnxz7mJR-95" value="&lt;font style=&quot;font-size: 14px;&quot;&gt;HW/LEO&lt;/font&gt;" style="text;html=1;align=center;verticalAlign=middle;whiteSpace=wrap;rounded=0;" parent="1" vertex="1">
          <mxGeometry x="419" y="615" width="60" height="30" as="geometry" />
        </mxCell>
        <mxCell id="_Dlw__QjHstHQnxz7mJR-98" value="&lt;font style=&quot;font-size: 14px;&quot;&gt;0&lt;/font&gt;" style="rounded=0;whiteSpace=wrap;html=1;fillColor=#fff2cc;strokeColor=#d6b656;" parent="1" vertex="1">
          <mxGeometry x="338" y="818" width="96" height="30" as="geometry" />
        </mxCell>
        <mxCell id="_Dlw__QjHstHQnxz7mJR-99" value="&lt;font style=&quot;font-size: 14px;&quot;&gt;1&lt;/font&gt;" style="rounded=0;whiteSpace=wrap;html=1;fillColor=#fff2cc;strokeColor=#d6b656;" parent="1" vertex="1">
          <mxGeometry x="338" y="850" width="96" height="30" as="geometry" />
        </mxCell>
        <mxCell id="_Dlw__QjHstHQnxz7mJR-100" value="&lt;font style=&quot;font-size: 14px;&quot;&gt;2&lt;/font&gt;" style="rounded=0;whiteSpace=wrap;html=1;fillColor=#fff2cc;strokeColor=#d6b656;" parent="1" vertex="1">
          <mxGeometry x="338" y="882" width="96" height="30" as="geometry" />
        </mxCell>
        <mxCell id="_Dlw__QjHstHQnxz7mJR-101" value="&lt;font style=&quot;font-size: 14px;&quot;&gt;3&lt;/font&gt;" style="rounded=0;whiteSpace=wrap;html=1;fillColor=#FFFFFF;strokeColor=#6c8ebf;" parent="1" vertex="1">
          <mxGeometry x="338" y="915" width="96" height="32" as="geometry" />
        </mxCell>
        <mxCell id="_Dlw__QjHstHQnxz7mJR-102" value="&lt;font style=&quot;font-size: 14px;&quot;&gt;4&lt;/font&gt;" style="rounded=0;whiteSpace=wrap;html=1;fillColor=#FFFFFF;strokeColor=#6c8ebf;" parent="1" vertex="1">
          <mxGeometry x="338" y="949" width="96" height="32" as="geometry" />
        </mxCell>
        <mxCell id="_Dlw__QjHstHQnxz7mJR-103" value="&lt;font style=&quot;font-size: 14px;&quot;&gt;HW&lt;/font&gt;" style="text;html=1;align=center;verticalAlign=middle;whiteSpace=wrap;rounded=0;" parent="1" vertex="1">
          <mxGeometry x="277" y="917" width="60" height="30" as="geometry" />
        </mxCell>
        <mxCell id="_Dlw__QjHstHQnxz7mJR-105" value="&lt;font style=&quot;font-size: 14px;&quot;&gt;LEO&lt;/font&gt;" style="text;html=1;align=center;verticalAlign=middle;whiteSpace=wrap;rounded=0;" parent="1" vertex="1">
          <mxGeometry x="276" y="986.5" width="60" height="30" as="geometry" />
        </mxCell>
        <mxCell id="_Dlw__QjHstHQnxz7mJR-106" value="&lt;font style=&quot;font-size: 14px;&quot;&gt;5&lt;/font&gt;" style="rounded=0;whiteSpace=wrap;html=1;dashed=1;" parent="1" vertex="1">
          <mxGeometry x="337" y="983.5" width="98" height="30" as="geometry" />
        </mxCell>
        <mxCell id="_Dlw__QjHstHQnxz7mJR-107" value="" style="shape=curlyBracket;whiteSpace=wrap;html=1;rounded=1;labelPosition=left;verticalLabelPosition=middle;align=right;verticalAlign=middle;" parent="1" vertex="1">
          <mxGeometry x="312" y="819.75" width="20" height="90.5" as="geometry" />
        </mxCell>
        <mxCell id="_Dlw__QjHstHQnxz7mJR-108" value="消费者可以消费的消息区间" style="text;html=1;align=center;verticalAlign=middle;whiteSpace=wrap;rounded=0;" parent="1" vertex="1">
          <mxGeometry x="223" y="848" width="91" height="30" as="geometry" />
        </mxCell>
        <mxCell id="_Dlw__QjHstHQnxz7mJR-110" style="edgeStyle=orthogonalEdgeStyle;rounded=0;orthogonalLoop=1;jettySize=auto;html=1;" parent="1" source="_Dlw__QjHstHQnxz7mJR-109" edge="1">
          <mxGeometry relative="1" as="geometry">
            <mxPoint x="438.4000000000001" y="998.5" as="targetPoint" />
          </mxGeometry>
        </mxCell>
        <mxCell id="_Dlw__QjHstHQnxz7mJR-109" value="当前将要写入的最新消息" style="text;html=1;align=center;verticalAlign=middle;whiteSpace=wrap;rounded=0;" parent="1" vertex="1">
          <mxGeometry x="513" y="983.5" width="91" height="30" as="geometry" />
        </mxCell>
        <mxCell id="_Dlw__QjHstHQnxz7mJR-111" value="&lt;font style=&quot;font-size: 14px;&quot;&gt;5&lt;/font&gt;" style="rounded=0;whiteSpace=wrap;html=1;dashed=1;" parent="1" vertex="1">
          <mxGeometry x="488" y="220.4" width="98" height="30" as="geometry" />
        </mxCell>
        <mxCell id="_Dlw__QjHstHQnxz7mJR-112" value="&lt;font style=&quot;font-size: 14px;&quot;&gt;5&lt;/font&gt;" style="rounded=0;whiteSpace=wrap;html=1;dashed=1;" parent="1" vertex="1">
          <mxGeometry x="66" y="601" width="98" height="30" as="geometry" />
        </mxCell>
        <mxCell id="_Dlw__QjHstHQnxz7mJR-113" value="&lt;font style=&quot;font-size: 14px;&quot;&gt;5&lt;/font&gt;" style="rounded=0;whiteSpace=wrap;html=1;dashed=1;" parent="1" vertex="1">
          <mxGeometry x="483" y="612" width="98" height="30" as="geometry" />
        </mxCell>
        <mxCell id="_Dlw__QjHstHQnxz7mJR-114" value="&lt;font style=&quot;font-size: 14px;&quot;&gt;3&lt;/font&gt;" style="rounded=0;whiteSpace=wrap;html=1;dashed=1;" parent="1" vertex="1">
          <mxGeometry x="70" y="151" width="98" height="30" as="geometry" />
        </mxCell>
      </root>
    </mxGraphModel>
  </diagram>
  <diagram id="MG_MFtSSxKbE47O0xzwR" name="第 2 页">
    <mxGraphModel dx="943" dy="510" grid="0" gridSize="10" guides="1" tooltips="1" connect="1" arrows="1" fold="1" page="1" pageScale="1" pageWidth="827" pageHeight="1169" math="0" shadow="0">
      <root>
        <mxCell id="0" />
        <mxCell id="1" parent="0" />
        <mxCell id="L4xutqIh_JjRXw30gJsF-2" value="" style="rounded=1;whiteSpace=wrap;html=1;fillColor=#fff2cc;strokeColor=#d6b656;" vertex="1" parent="1">
          <mxGeometry x="235" y="114" width="354" height="81" as="geometry" />
        </mxCell>
        <mxCell id="L4xutqIh_JjRXw30gJsF-3" value="msg1" style="whiteSpace=wrap;html=1;aspect=fixed;fillColor=#dae8fc;strokeColor=#6c8ebf;" vertex="1" parent="1">
          <mxGeometry x="506" y="125.5" width="58" height="58" as="geometry" />
        </mxCell>
        <mxCell id="L4xutqIh_JjRXw30gJsF-4" value="msg2" style="whiteSpace=wrap;html=1;aspect=fixed;fillColor=#dae8fc;strokeColor=#6c8ebf;" vertex="1" parent="1">
          <mxGeometry x="431" y="125.5" width="58" height="58" as="geometry" />
        </mxCell>
        <mxCell id="L4xutqIh_JjRXw30gJsF-5" value="msg3" style="whiteSpace=wrap;html=1;aspect=fixed;fillColor=#dae8fc;strokeColor=#6c8ebf;" vertex="1" parent="1">
          <mxGeometry x="356" y="125.5" width="58" height="58" as="geometry" />
        </mxCell>
        <mxCell id="L4xutqIh_JjRXw30gJsF-6" value="&lt;font color=&quot;#ff3333&quot; style=&quot;font-size: 14px;&quot;&gt;producer&lt;/font&gt;" style="rounded=1;whiteSpace=wrap;html=1;strokeWidth=2;fillWeight=4;hachureGap=8;hachureAngle=45;fillColor=#e1d5e7;sketch=1;strokeColor=#9673a6;" vertex="1" parent="1">
          <mxGeometry x="41" y="132" width="120" height="60" as="geometry" />
        </mxCell>
        <mxCell id="L4xutqIh_JjRXw30gJsF-8" style="edgeStyle=orthogonalEdgeStyle;rounded=0;orthogonalLoop=1;jettySize=auto;html=1;entryX=1;entryY=0.5;entryDx=0;entryDy=0;" edge="1" parent="1" source="L4xutqIh_JjRXw30gJsF-7" target="L4xutqIh_JjRXw30gJsF-2">
          <mxGeometry relative="1" as="geometry" />
        </mxCell>
        <mxCell id="L4xutqIh_JjRXw30gJsF-7" value="&lt;font color=&quot;#ff3333&quot; style=&quot;font-size: 14px;&quot;&gt;consumer&lt;/font&gt;" style="rounded=1;whiteSpace=wrap;html=1;strokeWidth=2;fillWeight=4;hachureGap=8;hachureAngle=45;fillColor=#e1d5e7;sketch=1;strokeColor=#9673a6;" vertex="1" parent="1">
          <mxGeometry x="666" y="124.5" width="120" height="60" as="geometry" />
        </mxCell>
        <mxCell id="L4xutqIh_JjRXw30gJsF-9" style="edgeStyle=orthogonalEdgeStyle;rounded=0;orthogonalLoop=1;jettySize=auto;html=1;entryX=0.003;entryY=0.593;entryDx=0;entryDy=0;entryPerimeter=0;" edge="1" parent="1" source="L4xutqIh_JjRXw30gJsF-6" target="L4xutqIh_JjRXw30gJsF-2">
          <mxGeometry relative="1" as="geometry" />
        </mxCell>
        <mxCell id="L4xutqIh_JjRXw30gJsF-10" value="&lt;span style=&quot;color: rgb(255, 51, 51); font-family: Helvetica; font-size: 14px; font-style: normal; font-variant-ligatures: normal; font-variant-caps: normal; font-weight: 400; letter-spacing: normal; orphans: 2; text-align: center; text-indent: 0px; text-transform: none; widows: 2; word-spacing: 0px; -webkit-text-stroke-width: 0px; white-space: normal; background-color: rgb(251, 251, 251); text-decoration-thickness: initial; text-decoration-style: initial; text-decoration-color: initial; display: inline !important; float: none;&quot;&gt;partition&lt;/span&gt;" style="text;whiteSpace=wrap;html=1;" vertex="1" parent="1">
          <mxGeometry x="264" y="142.5" width="89" height="39" as="geometry" />
        </mxCell>
        <mxCell id="L4xutqIh_JjRXw30gJsF-39" style="rounded=0;orthogonalLoop=1;jettySize=auto;html=1;" edge="1" parent="1" source="L4xutqIh_JjRXw30gJsF-13">
          <mxGeometry relative="1" as="geometry">
            <mxPoint x="625" y="589" as="targetPoint" />
          </mxGeometry>
        </mxCell>
        <mxCell id="L4xutqIh_JjRXw30gJsF-12" value="" style="rounded=1;whiteSpace=wrap;html=1;fillColor=#fff2cc;strokeColor=#d6b656;dashed=1;" vertex="1" parent="1">
          <mxGeometry x="227" y="421" width="354" height="81" as="geometry" />
        </mxCell>
        <mxCell id="L4xutqIh_JjRXw30gJsF-32" style="rounded=0;orthogonalLoop=1;jettySize=auto;html=1;entryX=0.874;entryY=0.024;entryDx=0;entryDy=0;entryPerimeter=0;" edge="1" parent="1" source="L4xutqIh_JjRXw30gJsF-13" target="L4xutqIh_JjRXw30gJsF-24">
          <mxGeometry relative="1" as="geometry" />
        </mxCell>
        <mxCell id="L4xutqIh_JjRXw30gJsF-13" value="p2" style="whiteSpace=wrap;html=1;aspect=fixed;fillColor=#dae8fc;strokeColor=#6c8ebf;" vertex="1" parent="1">
          <mxGeometry x="498" y="432.5" width="58" height="58" as="geometry" />
        </mxCell>
        <mxCell id="L4xutqIh_JjRXw30gJsF-31" style="rounded=0;orthogonalLoop=1;jettySize=auto;html=1;entryX=0.565;entryY=0;entryDx=0;entryDy=0;entryPerimeter=0;" edge="1" parent="1" source="L4xutqIh_JjRXw30gJsF-14" target="L4xutqIh_JjRXw30gJsF-24">
          <mxGeometry relative="1" as="geometry" />
        </mxCell>
        <mxCell id="L4xutqIh_JjRXw30gJsF-40" style="rounded=0;orthogonalLoop=1;jettySize=auto;html=1;entryX=0.5;entryY=0;entryDx=0;entryDy=0;" edge="1" parent="1" source="L4xutqIh_JjRXw30gJsF-14" target="L4xutqIh_JjRXw30gJsF-33">
          <mxGeometry relative="1" as="geometry" />
        </mxCell>
        <mxCell id="L4xutqIh_JjRXw30gJsF-14" value="p1" style="whiteSpace=wrap;html=1;aspect=fixed;fillColor=#dae8fc;strokeColor=#6c8ebf;" vertex="1" parent="1">
          <mxGeometry x="423" y="432.5" width="58" height="58" as="geometry" />
        </mxCell>
        <mxCell id="L4xutqIh_JjRXw30gJsF-38" style="rounded=0;orthogonalLoop=1;jettySize=auto;html=1;entryX=0.133;entryY=-0.012;entryDx=0;entryDy=0;entryPerimeter=0;" edge="1" parent="1" source="L4xutqIh_JjRXw30gJsF-15" target="L4xutqIh_JjRXw30gJsF-33">
          <mxGeometry relative="1" as="geometry" />
        </mxCell>
        <mxCell id="L4xutqIh_JjRXw30gJsF-15" value="p0" style="whiteSpace=wrap;html=1;aspect=fixed;fillColor=#dae8fc;strokeColor=#6c8ebf;" vertex="1" parent="1">
          <mxGeometry x="348" y="432.5" width="58" height="58" as="geometry" />
        </mxCell>
        <mxCell id="L4xutqIh_JjRXw30gJsF-20" value="&lt;span style=&quot;color: rgb(255, 51, 51); font-family: Helvetica; font-size: 14px; font-style: normal; font-variant-ligatures: normal; font-variant-caps: normal; font-weight: 400; letter-spacing: normal; orphans: 2; text-align: center; text-indent: 0px; text-transform: none; widows: 2; word-spacing: 0px; -webkit-text-stroke-width: 0px; white-space: normal; background-color: rgb(251, 251, 251); text-decoration-thickness: initial; text-decoration-style: initial; text-decoration-color: initial; display: inline !important; float: none;&quot;&gt;topic&lt;/span&gt;" style="text;whiteSpace=wrap;html=1;" vertex="1" parent="1">
          <mxGeometry x="256" y="449.5" width="89" height="39" as="geometry" />
        </mxCell>
        <mxCell id="L4xutqIh_JjRXw30gJsF-24" value="" style="rounded=1;whiteSpace=wrap;html=1;dashed=1;fillColor=#f5f5f5;fontColor=#333333;strokeColor=#666666;" vertex="1" parent="1">
          <mxGeometry x="74" y="591" width="340" height="84" as="geometry" />
        </mxCell>
        <mxCell id="L4xutqIh_JjRXw30gJsF-25" value="&lt;font color=&quot;#ff3333&quot; style=&quot;font-size: 14px;&quot;&gt;c0&lt;/font&gt;" style="rounded=1;whiteSpace=wrap;html=1;strokeWidth=2;fillWeight=4;hachureGap=8;hachureAngle=45;fillColor=#e1d5e7;sketch=1;strokeColor=#9673a6;" vertex="1" parent="1">
          <mxGeometry x="103" y="607" width="87.5" height="32" as="geometry" />
        </mxCell>
        <mxCell id="L4xutqIh_JjRXw30gJsF-26" value="&lt;font color=&quot;#ff3333&quot; style=&quot;font-size: 14px;&quot;&gt;c1&lt;/font&gt;" style="rounded=1;whiteSpace=wrap;html=1;strokeWidth=2;fillWeight=4;hachureGap=8;hachureAngle=45;fillColor=#e1d5e7;sketch=1;strokeColor=#9673a6;" vertex="1" parent="1">
          <mxGeometry x="210.5" y="607" width="87.5" height="32" as="geometry" />
        </mxCell>
        <mxCell id="L4xutqIh_JjRXw30gJsF-27" value="&lt;font color=&quot;#ff3333&quot; style=&quot;font-size: 14px;&quot;&gt;c2&lt;/font&gt;" style="rounded=1;whiteSpace=wrap;html=1;strokeWidth=2;fillWeight=4;hachureGap=8;hachureAngle=45;fillColor=#e1d5e7;sketch=1;strokeColor=#9673a6;" vertex="1" parent="1">
          <mxGeometry x="320.5" y="607" width="87.5" height="32" as="geometry" />
        </mxCell>
        <mxCell id="L4xutqIh_JjRXw30gJsF-28" value="&lt;font color=&quot;#ff3333&quot; style=&quot;font-size: 14px;&quot;&gt;consumer group A&lt;/font&gt;" style="text;html=1;align=center;verticalAlign=middle;whiteSpace=wrap;rounded=0;" vertex="1" parent="1">
          <mxGeometry x="190.5" y="645" width="126" height="30" as="geometry" />
        </mxCell>
        <mxCell id="L4xutqIh_JjRXw30gJsF-29" style="rounded=0;orthogonalLoop=1;jettySize=auto;html=1;entryX=0.232;entryY=0;entryDx=0;entryDy=0;entryPerimeter=0;" edge="1" parent="1" source="L4xutqIh_JjRXw30gJsF-15" target="L4xutqIh_JjRXw30gJsF-24">
          <mxGeometry relative="1" as="geometry" />
        </mxCell>
        <mxCell id="L4xutqIh_JjRXw30gJsF-33" value="" style="rounded=1;whiteSpace=wrap;html=1;dashed=1;fillColor=#f5f5f5;fontColor=#333333;strokeColor=#666666;" vertex="1" parent="1">
          <mxGeometry x="474" y="591" width="270" height="84" as="geometry" />
        </mxCell>
        <mxCell id="L4xutqIh_JjRXw30gJsF-34" value="&lt;font color=&quot;#ff3333&quot; style=&quot;font-size: 14px;&quot;&gt;c3&lt;/font&gt;" style="rounded=1;whiteSpace=wrap;html=1;strokeWidth=2;fillWeight=4;hachureGap=8;hachureAngle=45;fillColor=#e1d5e7;sketch=1;strokeColor=#9673a6;" vertex="1" parent="1">
          <mxGeometry x="503" y="607" width="87.5" height="32" as="geometry" />
        </mxCell>
        <mxCell id="L4xutqIh_JjRXw30gJsF-35" value="&lt;font color=&quot;#ff3333&quot; style=&quot;font-size: 14px;&quot;&gt;c4&lt;/font&gt;" style="rounded=1;whiteSpace=wrap;html=1;strokeWidth=2;fillWeight=4;hachureGap=8;hachureAngle=45;fillColor=#e1d5e7;sketch=1;strokeColor=#9673a6;" vertex="1" parent="1">
          <mxGeometry x="610.5" y="607" width="87.5" height="32" as="geometry" />
        </mxCell>
        <mxCell id="L4xutqIh_JjRXw30gJsF-37" value="&lt;font color=&quot;#ff3333&quot; style=&quot;font-size: 14px;&quot;&gt;consumer group B&lt;/font&gt;" style="text;html=1;align=center;verticalAlign=middle;whiteSpace=wrap;rounded=0;" vertex="1" parent="1">
          <mxGeometry x="544" y="645" width="126" height="30" as="geometry" />
        </mxCell>
        <mxCell id="L4xutqIh_JjRXw30gJsF-41" style="rounded=0;orthogonalLoop=1;jettySize=auto;html=1;entryX=0.849;entryY=-0.036;entryDx=0;entryDy=0;entryPerimeter=0;" edge="1" parent="1" source="L4xutqIh_JjRXw30gJsF-44" target="L4xutqIh_JjRXw30gJsF-57">
          <mxGeometry relative="1" as="geometry">
            <mxPoint x="630" y="973" as="targetPoint" />
          </mxGeometry>
        </mxCell>
        <mxCell id="L4xutqIh_JjRXw30gJsF-42" value="" style="rounded=1;whiteSpace=wrap;html=1;fillColor=#fff2cc;strokeColor=#d6b656;dashed=1;" vertex="1" parent="1">
          <mxGeometry x="232" y="805" width="354" height="81" as="geometry" />
        </mxCell>
        <mxCell id="L4xutqIh_JjRXw30gJsF-43" style="rounded=0;orthogonalLoop=1;jettySize=auto;html=1;entryX=0.874;entryY=0.024;entryDx=0;entryDy=0;entryPerimeter=0;" edge="1" parent="1" source="L4xutqIh_JjRXw30gJsF-44" target="L4xutqIh_JjRXw30gJsF-51">
          <mxGeometry relative="1" as="geometry" />
        </mxCell>
        <mxCell id="L4xutqIh_JjRXw30gJsF-44" value="p2" style="whiteSpace=wrap;html=1;aspect=fixed;fillColor=#dae8fc;strokeColor=#6c8ebf;" vertex="1" parent="1">
          <mxGeometry x="503" y="816.5" width="58" height="58" as="geometry" />
        </mxCell>
        <mxCell id="L4xutqIh_JjRXw30gJsF-45" style="rounded=0;orthogonalLoop=1;jettySize=auto;html=1;entryX=0.565;entryY=0;entryDx=0;entryDy=0;entryPerimeter=0;" edge="1" parent="1" source="L4xutqIh_JjRXw30gJsF-47" target="L4xutqIh_JjRXw30gJsF-51">
          <mxGeometry relative="1" as="geometry" />
        </mxCell>
        <mxCell id="L4xutqIh_JjRXw30gJsF-46" style="rounded=0;orthogonalLoop=1;jettySize=auto;html=1;entryX=0.5;entryY=0;entryDx=0;entryDy=0;" edge="1" parent="1" source="L4xutqIh_JjRXw30gJsF-47" target="L4xutqIh_JjRXw30gJsF-57">
          <mxGeometry relative="1" as="geometry" />
        </mxCell>
        <mxCell id="L4xutqIh_JjRXw30gJsF-47" value="p1" style="whiteSpace=wrap;html=1;aspect=fixed;fillColor=#dae8fc;strokeColor=#6c8ebf;" vertex="1" parent="1">
          <mxGeometry x="428" y="816.5" width="58" height="58" as="geometry" />
        </mxCell>
        <mxCell id="L4xutqIh_JjRXw30gJsF-48" style="rounded=0;orthogonalLoop=1;jettySize=auto;html=1;entryX=0.133;entryY=-0.012;entryDx=0;entryDy=0;entryPerimeter=0;" edge="1" parent="1" source="L4xutqIh_JjRXw30gJsF-49" target="L4xutqIh_JjRXw30gJsF-57">
          <mxGeometry relative="1" as="geometry" />
        </mxCell>
        <mxCell id="L4xutqIh_JjRXw30gJsF-49" value="p0" style="whiteSpace=wrap;html=1;aspect=fixed;fillColor=#dae8fc;strokeColor=#6c8ebf;" vertex="1" parent="1">
          <mxGeometry x="353" y="816.5" width="58" height="58" as="geometry" />
        </mxCell>
        <mxCell id="L4xutqIh_JjRXw30gJsF-50" value="&lt;span style=&quot;color: rgb(255, 51, 51); font-family: Helvetica; font-size: 14px; font-style: normal; font-variant-ligatures: normal; font-variant-caps: normal; font-weight: 400; letter-spacing: normal; orphans: 2; text-align: center; text-indent: 0px; text-transform: none; widows: 2; word-spacing: 0px; -webkit-text-stroke-width: 0px; white-space: normal; background-color: rgb(251, 251, 251); text-decoration-thickness: initial; text-decoration-style: initial; text-decoration-color: initial; display: inline !important; float: none;&quot;&gt;topic&lt;/span&gt;" style="text;whiteSpace=wrap;html=1;" vertex="1" parent="1">
          <mxGeometry x="261" y="833.5" width="89" height="39" as="geometry" />
        </mxCell>
        <mxCell id="L4xutqIh_JjRXw30gJsF-51" value="" style="rounded=1;whiteSpace=wrap;html=1;dashed=1;fillColor=#f5f5f5;fontColor=#333333;strokeColor=#666666;" vertex="1" parent="1">
          <mxGeometry x="79" y="975" width="340" height="84" as="geometry" />
        </mxCell>
        <mxCell id="L4xutqIh_JjRXw30gJsF-52" value="&lt;font color=&quot;#ff3333&quot; style=&quot;font-size: 14px;&quot;&gt;c0&lt;/font&gt;" style="rounded=1;whiteSpace=wrap;html=1;strokeWidth=2;fillWeight=4;hachureGap=8;hachureAngle=45;fillColor=#e1d5e7;sketch=1;strokeColor=#9673a6;" vertex="1" parent="1">
          <mxGeometry x="108" y="991" width="87.5" height="32" as="geometry" />
        </mxCell>
        <mxCell id="L4xutqIh_JjRXw30gJsF-53" value="&lt;font color=&quot;#ff3333&quot; style=&quot;font-size: 14px;&quot;&gt;c1&lt;/font&gt;" style="rounded=1;whiteSpace=wrap;html=1;strokeWidth=2;fillWeight=4;hachureGap=8;hachureAngle=45;fillColor=#e1d5e7;sketch=1;strokeColor=#9673a6;" vertex="1" parent="1">
          <mxGeometry x="215.5" y="991" width="87.5" height="32" as="geometry" />
        </mxCell>
        <mxCell id="L4xutqIh_JjRXw30gJsF-54" value="&lt;font color=&quot;#ff3333&quot; style=&quot;font-size: 14px;&quot;&gt;c2&lt;/font&gt;" style="rounded=1;whiteSpace=wrap;html=1;strokeWidth=2;fillWeight=4;hachureGap=8;hachureAngle=45;fillColor=#e1d5e7;sketch=1;strokeColor=#9673a6;" vertex="1" parent="1">
          <mxGeometry x="325.5" y="991" width="87.5" height="32" as="geometry" />
        </mxCell>
        <mxCell id="L4xutqIh_JjRXw30gJsF-55" value="&lt;font color=&quot;#ff3333&quot; style=&quot;font-size: 14px;&quot;&gt;consumer group A&lt;/font&gt;" style="text;html=1;align=center;verticalAlign=middle;whiteSpace=wrap;rounded=0;" vertex="1" parent="1">
          <mxGeometry x="195.5" y="1029" width="126" height="30" as="geometry" />
        </mxCell>
        <mxCell id="L4xutqIh_JjRXw30gJsF-56" style="rounded=0;orthogonalLoop=1;jettySize=auto;html=1;entryX=0.232;entryY=0;entryDx=0;entryDy=0;entryPerimeter=0;" edge="1" parent="1" source="L4xutqIh_JjRXw30gJsF-49" target="L4xutqIh_JjRXw30gJsF-51">
          <mxGeometry relative="1" as="geometry" />
        </mxCell>
        <mxCell id="L4xutqIh_JjRXw30gJsF-57" value="" style="rounded=1;whiteSpace=wrap;html=1;dashed=1;fillColor=#f5f5f5;fontColor=#333333;strokeColor=#666666;" vertex="1" parent="1">
          <mxGeometry x="479" y="975" width="331" height="84" as="geometry" />
        </mxCell>
        <mxCell id="L4xutqIh_JjRXw30gJsF-58" value="&lt;font color=&quot;#ff3333&quot; style=&quot;font-size: 14px;&quot;&gt;c3&lt;/font&gt;" style="rounded=1;whiteSpace=wrap;html=1;strokeWidth=2;fillWeight=4;hachureGap=8;hachureAngle=45;fillColor=#e1d5e7;sketch=1;strokeColor=#9673a6;" vertex="1" parent="1">
          <mxGeometry x="508" y="991" width="87.5" height="32" as="geometry" />
        </mxCell>
        <mxCell id="L4xutqIh_JjRXw30gJsF-59" value="&lt;font color=&quot;#ff3333&quot; style=&quot;font-size: 14px;&quot;&gt;c4&lt;/font&gt;" style="rounded=1;whiteSpace=wrap;html=1;strokeWidth=2;fillWeight=4;hachureGap=8;hachureAngle=45;fillColor=#e1d5e7;sketch=1;strokeColor=#9673a6;" vertex="1" parent="1">
          <mxGeometry x="615.5" y="991" width="87.5" height="32" as="geometry" />
        </mxCell>
        <mxCell id="L4xutqIh_JjRXw30gJsF-60" value="&lt;font color=&quot;#ff3333&quot; style=&quot;font-size: 14px;&quot;&gt;consumer group B&lt;/font&gt;" style="text;html=1;align=center;verticalAlign=middle;whiteSpace=wrap;rounded=0;" vertex="1" parent="1">
          <mxGeometry x="549" y="1029" width="126" height="30" as="geometry" />
        </mxCell>
        <mxCell id="L4xutqIh_JjRXw30gJsF-61" value="&lt;font color=&quot;#ff3333&quot; style=&quot;font-size: 14px;&quot;&gt;c5&lt;/font&gt;" style="rounded=1;whiteSpace=wrap;html=1;strokeWidth=2;fillWeight=4;hachureGap=8;hachureAngle=45;fillColor=#e1d5e7;sketch=1;strokeColor=#9673a6;" vertex="1" parent="1">
          <mxGeometry x="711" y="991" width="87.5" height="32" as="geometry" />
        </mxCell>
        <mxCell id="L4xutqIh_JjRXw30gJsF-64" value="" style="shape=flexArrow;endArrow=classic;html=1;rounded=0;fillColor=#d5e8d4;strokeColor=#82b366;" edge="1" parent="1">
          <mxGeometry width="50" height="50" relative="1" as="geometry">
            <mxPoint x="445" y="671" as="sourcePoint" />
            <mxPoint x="447" y="787" as="targetPoint" />
          </mxGeometry>
        </mxCell>
        <mxCell id="L4xutqIh_JjRXw30gJsF-65" value="&lt;font color=&quot;#ff3333&quot; style=&quot;font-size: 14px;&quot;&gt;rebanlance&lt;/font&gt;" style="text;html=1;align=center;verticalAlign=middle;whiteSpace=wrap;rounded=0;" vertex="1" parent="1">
          <mxGeometry x="368" y="726" width="60" height="30" as="geometry" />
        </mxCell>
      </root>
    </mxGraphModel>
  </diagram>
  <diagram id="dOJr1fPPyQcWZObUnPep" name="第 3 页">
    <mxGraphModel dx="943" dy="808" grid="0" gridSize="10" guides="1" tooltips="1" connect="1" arrows="1" fold="1" page="1" pageScale="1" pageWidth="827" pageHeight="1169" math="0" shadow="0">
      <root>
        <mxCell id="0" />
        <mxCell id="1" parent="0" />
        <mxCell id="o-hReVEgJBM_oGFmqOLk-12" style="edgeStyle=orthogonalEdgeStyle;rounded=0;orthogonalLoop=1;jettySize=auto;html=1;dashed=1;" edge="1" parent="1" source="o-hReVEgJBM_oGFmqOLk-1" target="o-hReVEgJBM_oGFmqOLk-2">
          <mxGeometry relative="1" as="geometry">
            <Array as="points">
              <mxPoint x="313" y="115" />
            </Array>
          </mxGeometry>
        </mxCell>
        <mxCell id="o-hReVEgJBM_oGFmqOLk-1" value="&lt;font style=&quot;font-size: 14px;&quot;&gt;配置中心&lt;/font&gt;" style="rounded=1;whiteSpace=wrap;html=1;fillColor=#fff2cc;strokeColor=#d6b656;" vertex="1" parent="1">
          <mxGeometry x="133" y="85" width="120" height="60" as="geometry" />
        </mxCell>
        <mxCell id="o-hReVEgJBM_oGFmqOLk-2" value="&lt;font style=&quot;font-size: 14px;&quot;&gt;微服务&lt;/font&gt;" style="rounded=0;whiteSpace=wrap;html=1;fillColor=#f8cecc;strokeColor=#b85450;" vertex="1" parent="1">
          <mxGeometry x="262" y="267" width="101" height="43" as="geometry" />
        </mxCell>
        <mxCell id="o-hReVEgJBM_oGFmqOLk-4" value="&lt;font style=&quot;font-size: 14px;&quot;&gt;微服务&lt;/font&gt;" style="rounded=0;whiteSpace=wrap;html=1;fillColor=#f8cecc;strokeColor=#b85450;" vertex="1" parent="1">
          <mxGeometry x="408" y="267" width="101" height="43" as="geometry" />
        </mxCell>
        <mxCell id="o-hReVEgJBM_oGFmqOLk-6" style="edgeStyle=orthogonalEdgeStyle;rounded=0;orthogonalLoop=1;jettySize=auto;html=1;" edge="1" parent="1" source="o-hReVEgJBM_oGFmqOLk-5">
          <mxGeometry relative="1" as="geometry">
            <mxPoint x="189" y="146" as="targetPoint" />
            <Array as="points">
              <mxPoint x="591" y="358" />
              <mxPoint x="190" y="358" />
            </Array>
          </mxGeometry>
        </mxCell>
        <mxCell id="o-hReVEgJBM_oGFmqOLk-5" value="&lt;font style=&quot;font-size: 14px;&quot;&gt;微服务&lt;/font&gt;" style="rounded=0;whiteSpace=wrap;html=1;fillColor=#f8cecc;strokeColor=#b85450;" vertex="1" parent="1">
          <mxGeometry x="540" y="267" width="101" height="43" as="geometry" />
        </mxCell>
        <mxCell id="o-hReVEgJBM_oGFmqOLk-8" value="" style="endArrow=none;html=1;rounded=0;" edge="1" parent="1">
          <mxGeometry width="50" height="50" relative="1" as="geometry">
            <mxPoint x="314" y="357" as="sourcePoint" />
            <mxPoint x="314" y="310" as="targetPoint" />
          </mxGeometry>
        </mxCell>
        <mxCell id="o-hReVEgJBM_oGFmqOLk-9" value="" style="endArrow=none;html=1;rounded=0;" edge="1" parent="1">
          <mxGeometry width="50" height="50" relative="1" as="geometry">
            <mxPoint x="455" y="357" as="sourcePoint" />
            <mxPoint x="455" y="310" as="targetPoint" />
          </mxGeometry>
        </mxCell>
        <mxCell id="o-hReVEgJBM_oGFmqOLk-11" value="&lt;font style=&quot;font-size: 14px;&quot;&gt;拉取配置&lt;/font&gt;" style="text;html=1;align=center;verticalAlign=middle;resizable=0;points=[];autosize=1;strokeColor=none;fillColor=none;" vertex="1" parent="1">
          <mxGeometry x="207" y="326" width="74" height="29" as="geometry" />
        </mxCell>
        <mxCell id="o-hReVEgJBM_oGFmqOLk-14" style="edgeStyle=orthogonalEdgeStyle;rounded=0;orthogonalLoop=1;jettySize=auto;html=1;dashed=1;" edge="1" parent="1">
          <mxGeometry relative="1" as="geometry">
            <mxPoint x="467" y="117" as="sourcePoint" />
            <mxPoint x="598" y="269" as="targetPoint" />
            <Array as="points">
              <mxPoint x="598" y="117" />
            </Array>
          </mxGeometry>
        </mxCell>
        <mxCell id="o-hReVEgJBM_oGFmqOLk-15" style="edgeStyle=orthogonalEdgeStyle;rounded=0;orthogonalLoop=1;jettySize=auto;html=1;dashed=1;" edge="1" parent="1">
          <mxGeometry relative="1" as="geometry">
            <mxPoint x="317" y="117" as="sourcePoint" />
            <mxPoint x="466" y="269" as="targetPoint" />
            <Array as="points">
              <mxPoint x="466" y="117" />
            </Array>
          </mxGeometry>
        </mxCell>
        <mxCell id="o-hReVEgJBM_oGFmqOLk-16" value="&lt;font style=&quot;font-size: 14px;&quot;&gt;配置变更通知&lt;/font&gt;" style="text;html=1;align=center;verticalAlign=middle;resizable=0;points=[];autosize=1;strokeColor=none;fillColor=none;" vertex="1" parent="1">
          <mxGeometry x="278" y="85" width="102" height="29" as="geometry" />
        </mxCell>
        <mxCell id="o-hReVEgJBM_oGFmqOLk-17" value="" style="rounded=1;whiteSpace=wrap;html=1;fillColor=#f5f5f5;strokeColor=#666666;fontColor=#333333;" vertex="1" parent="1">
          <mxGeometry x="96" y="674" width="639" height="307" as="geometry" />
        </mxCell>
        <mxCell id="o-hReVEgJBM_oGFmqOLk-18" value="&lt;font style=&quot;font-size: 14px;&quot;&gt;服务提供者实例1&lt;/font&gt;&lt;div&gt;&lt;font style=&quot;font-size: 14px;&quot;&gt;192.168.1.1&lt;/font&gt;&lt;/div&gt;" style="rounded=1;whiteSpace=wrap;html=1;fillColor=#d5e8d4;strokeColor=#82b366;" vertex="1" parent="1">
          <mxGeometry x="573" y="723" width="120" height="60" as="geometry" />
        </mxCell>
        <mxCell id="o-hReVEgJBM_oGFmqOLk-19" value="&lt;font style=&quot;font-size: 14px;&quot;&gt;服务提供者实例2&lt;/font&gt;&lt;div&gt;&lt;font style=&quot;font-size: 14px;&quot;&gt;192.168.1.2&lt;br&gt;&lt;/font&gt;&lt;/div&gt;" style="rounded=1;whiteSpace=wrap;html=1;fillColor=#d5e8d4;strokeColor=#82b366;" vertex="1" parent="1">
          <mxGeometry x="573" y="819.5" width="120" height="60" as="geometry" />
        </mxCell>
        <mxCell id="o-hReVEgJBM_oGFmqOLk-20" value="&lt;font style=&quot;font-size: 14px;&quot;&gt;服务提供者实例3&lt;/font&gt;&lt;div&gt;&lt;font style=&quot;font-size: 14px;&quot;&gt;192.168.1.3&lt;br&gt;&lt;/font&gt;&lt;/div&gt;" style="rounded=1;whiteSpace=wrap;html=1;fillColor=#d5e8d4;strokeColor=#82b366;" vertex="1" parent="1">
          <mxGeometry x="575" y="906" width="120" height="60" as="geometry" />
        </mxCell>
        <mxCell id="o-hReVEgJBM_oGFmqOLk-21" value="&lt;font color=&quot;#ff3333&quot; style=&quot;font-size: 14px;&quot;&gt;服务端负载均衡&lt;/font&gt;" style="text;html=1;align=center;verticalAlign=middle;whiteSpace=wrap;rounded=0;" vertex="1" parent="1">
          <mxGeometry x="325" y="690" width="113" height="30" as="geometry" />
        </mxCell>
        <mxCell id="o-hReVEgJBM_oGFmqOLk-36" style="edgeStyle=orthogonalEdgeStyle;rounded=0;orthogonalLoop=1;jettySize=auto;html=1;" edge="1" parent="1" source="o-hReVEgJBM_oGFmqOLk-25" target="o-hReVEgJBM_oGFmqOLk-27">
          <mxGeometry relative="1" as="geometry" />
        </mxCell>
        <mxCell id="o-hReVEgJBM_oGFmqOLk-25" value="&lt;font style=&quot;font-size: 14px;&quot;&gt;客户端&lt;/font&gt;" style="rounded=1;whiteSpace=wrap;html=1;fillColor=#fff2cc;strokeColor=#d6b656;" vertex="1" parent="1">
          <mxGeometry x="116" y="819.5" width="120" height="60" as="geometry" />
        </mxCell>
        <mxCell id="o-hReVEgJBM_oGFmqOLk-33" style="rounded=0;orthogonalLoop=1;jettySize=auto;html=1;exitX=1;exitY=0.5;exitDx=0;exitDy=0;" edge="1" parent="1" source="o-hReVEgJBM_oGFmqOLk-27" target="o-hReVEgJBM_oGFmqOLk-18">
          <mxGeometry relative="1" as="geometry" />
        </mxCell>
        <mxCell id="o-hReVEgJBM_oGFmqOLk-34" style="edgeStyle=orthogonalEdgeStyle;rounded=0;orthogonalLoop=1;jettySize=auto;html=1;strokeColor=#FF3333;" edge="1" parent="1" source="o-hReVEgJBM_oGFmqOLk-27" target="o-hReVEgJBM_oGFmqOLk-19">
          <mxGeometry relative="1" as="geometry" />
        </mxCell>
        <mxCell id="o-hReVEgJBM_oGFmqOLk-35" style="rounded=0;orthogonalLoop=1;jettySize=auto;html=1;exitX=1;exitY=0.5;exitDx=0;exitDy=0;entryX=0;entryY=0.5;entryDx=0;entryDy=0;" edge="1" parent="1" source="o-hReVEgJBM_oGFmqOLk-27" target="o-hReVEgJBM_oGFmqOLk-20">
          <mxGeometry relative="1" as="geometry" />
        </mxCell>
        <mxCell id="o-hReVEgJBM_oGFmqOLk-27" value="&lt;font style=&quot;font-size: 14px;&quot;&gt;nginx&lt;/font&gt;" style="rounded=0;whiteSpace=wrap;html=1;" vertex="1" parent="1">
          <mxGeometry x="296" y="751" width="154" height="197" as="geometry" />
        </mxCell>
      </root>
    </mxGraphModel>
  </diagram>
  <diagram id="65WdoiO88WlysM-wfBvT" name="第 4 页">
    <mxGraphModel dx="943" dy="808" grid="0" gridSize="10" guides="1" tooltips="1" connect="1" arrows="1" fold="1" page="1" pageScale="1" pageWidth="827" pageHeight="1169" math="0" shadow="0">
      <root>
        <mxCell id="0" />
        <mxCell id="1" parent="0" />
        <mxCell id="W28e_mkVM-K-JE9_rfFs-1" value="" style="rounded=1;whiteSpace=wrap;html=1;fillColor=#f5f5f5;strokeColor=#666666;fontColor=#333333;" vertex="1" parent="1">
          <mxGeometry x="66" y="42" width="633" height="312" as="geometry" />
        </mxCell>
        <mxCell id="W28e_mkVM-K-JE9_rfFs-2" value="&lt;font style=&quot;font-size: 14px;&quot;&gt;服务提供者实例1&lt;/font&gt;&lt;div&gt;&lt;font style=&quot;font-size: 14px;&quot;&gt;192.168.1.1&lt;/font&gt;&lt;/div&gt;" style="rounded=1;whiteSpace=wrap;html=1;fillColor=#d5e8d4;strokeColor=#82b366;" vertex="1" parent="1">
          <mxGeometry x="563" y="83" width="120" height="60" as="geometry" />
        </mxCell>
        <mxCell id="W28e_mkVM-K-JE9_rfFs-3" value="&lt;font style=&quot;font-size: 14px;&quot;&gt;服务提供者实例2&lt;/font&gt;&lt;div&gt;&lt;font style=&quot;font-size: 14px;&quot;&gt;192.168.1.2&lt;br&gt;&lt;/font&gt;&lt;/div&gt;" style="rounded=1;whiteSpace=wrap;html=1;fillColor=#d5e8d4;strokeColor=#82b366;" vertex="1" parent="1">
          <mxGeometry x="563" y="179.5" width="120" height="60" as="geometry" />
        </mxCell>
        <mxCell id="W28e_mkVM-K-JE9_rfFs-4" value="&lt;font style=&quot;font-size: 14px;&quot;&gt;服务提供者实例3&lt;/font&gt;&lt;div&gt;&lt;font style=&quot;font-size: 14px;&quot;&gt;192.168.1.3&lt;br&gt;&lt;/font&gt;&lt;/div&gt;" style="rounded=1;whiteSpace=wrap;html=1;fillColor=#d5e8d4;strokeColor=#82b366;" vertex="1" parent="1">
          <mxGeometry x="565" y="266" width="120" height="60" as="geometry" />
        </mxCell>
        <mxCell id="W28e_mkVM-K-JE9_rfFs-5" value="&lt;font color=&quot;#ff3333&quot; style=&quot;font-size: 14px;&quot;&gt;客户端负载均衡&lt;/font&gt;" style="text;html=1;align=center;verticalAlign=middle;whiteSpace=wrap;rounded=0;" vertex="1" parent="1">
          <mxGeometry x="315" y="50" width="113" height="30" as="geometry" />
        </mxCell>
        <mxCell id="W28e_mkVM-K-JE9_rfFs-7" value="" style="rounded=1;whiteSpace=wrap;html=1;fillColor=#fff2cc;strokeColor=#d6b656;" vertex="1" parent="1">
          <mxGeometry x="95" y="141" width="209" height="125" as="geometry" />
        </mxCell>
        <mxCell id="W28e_mkVM-K-JE9_rfFs-8" style="rounded=0;orthogonalLoop=1;jettySize=auto;html=1;exitX=1;exitY=0.5;exitDx=0;exitDy=0;" edge="1" parent="1" target="W28e_mkVM-K-JE9_rfFs-2">
          <mxGeometry relative="1" as="geometry">
            <mxPoint x="440" y="209.5" as="sourcePoint" />
          </mxGeometry>
        </mxCell>
        <mxCell id="W28e_mkVM-K-JE9_rfFs-9" style="edgeStyle=orthogonalEdgeStyle;rounded=0;orthogonalLoop=1;jettySize=auto;html=1;strokeColor=#FF3333;" edge="1" parent="1" target="W28e_mkVM-K-JE9_rfFs-3">
          <mxGeometry relative="1" as="geometry">
            <mxPoint x="440" y="209.5" as="sourcePoint" />
          </mxGeometry>
        </mxCell>
        <mxCell id="W28e_mkVM-K-JE9_rfFs-10" style="rounded=0;orthogonalLoop=1;jettySize=auto;html=1;exitX=1;exitY=0.5;exitDx=0;exitDy=0;entryX=0;entryY=0.5;entryDx=0;entryDy=0;" edge="1" parent="1" target="W28e_mkVM-K-JE9_rfFs-4">
          <mxGeometry relative="1" as="geometry">
            <mxPoint x="440" y="209.5" as="sourcePoint" />
          </mxGeometry>
        </mxCell>
        <mxCell id="W28e_mkVM-K-JE9_rfFs-13" value="&lt;font color=&quot;#ff3333&quot;&gt;Ribbon&lt;/font&gt;" style="ellipse;whiteSpace=wrap;html=1;fillColor=#f8cecc;strokeColor=#b85450;" vertex="1" parent="1">
          <mxGeometry x="140" y="202" width="119" height="54" as="geometry" />
        </mxCell>
        <mxCell id="W28e_mkVM-K-JE9_rfFs-14" value="&lt;font style=&quot;font-size: 14px;&quot;&gt;客户端&lt;/font&gt;" style="text;html=1;align=center;verticalAlign=middle;whiteSpace=wrap;rounded=0;" vertex="1" parent="1">
          <mxGeometry x="169.5" y="160" width="60" height="30" as="geometry" />
        </mxCell>
        <mxCell id="W28e_mkVM-K-JE9_rfFs-16" value="" style="endArrow=none;html=1;rounded=0;strokeColor=#FF3333;" edge="1" parent="1">
          <mxGeometry width="50" height="50" relative="1" as="geometry">
            <mxPoint x="304" y="212" as="sourcePoint" />
            <mxPoint x="440" y="209" as="targetPoint" />
          </mxGeometry>
        </mxCell>
        <mxCell id="W28e_mkVM-K-JE9_rfFs-24" value="" style="rounded=1;whiteSpace=wrap;html=1;fillColor=#fff2cc;strokeColor=#d6b656;" vertex="1" parent="1">
          <mxGeometry x="25" y="846" width="209" height="125" as="geometry" />
        </mxCell>
        <mxCell id="W28e_mkVM-K-JE9_rfFs-28" value="&lt;font color=&quot;#ff3333&quot;&gt;Ribbon&lt;/font&gt;" style="ellipse;whiteSpace=wrap;html=1;fillColor=#f8cecc;strokeColor=#b85450;" vertex="1" parent="1">
          <mxGeometry x="65" y="889" width="119" height="54" as="geometry" />
        </mxCell>
        <mxCell id="W28e_mkVM-K-JE9_rfFs-29" value="&lt;font style=&quot;font-size: 14px;&quot;&gt;客户端&lt;/font&gt;" style="text;html=1;align=center;verticalAlign=middle;whiteSpace=wrap;rounded=0;" vertex="1" parent="1">
          <mxGeometry x="100" y="859" width="60" height="30" as="geometry" />
        </mxCell>
        <mxCell id="W28e_mkVM-K-JE9_rfFs-31" value="&lt;font style=&quot;font-size: 14px;&quot;&gt;注册中心&lt;/font&gt;&lt;div&gt;&lt;span style=&quot;font-size: 14px;&quot;&gt;服务提供者实例信息&lt;/span&gt;&lt;/div&gt;&lt;div&gt;&lt;span style=&quot;font-size: 14px;&quot;&gt;（&lt;/span&gt;&lt;span style=&quot;font-size: 14px; background-color: initial;&quot;&gt;192.168.1.1:80,&lt;/span&gt;&lt;span style=&quot;font-size: 14px; background-color: initial;&quot;&gt;192.168.1.1:81,&lt;/span&gt;&lt;/div&gt;&lt;div&gt;&lt;span style=&quot;font-size: 14px; background-color: initial;&quot;&gt;192.168.1.1:82&lt;/span&gt;&lt;span style=&quot;background-color: initial; font-size: 14px;&quot;&gt;）&lt;/span&gt;&lt;/div&gt;" style="rounded=1;whiteSpace=wrap;html=1;fillColor=#e1d5e7;strokeColor=#9673a6;" vertex="1" parent="1">
          <mxGeometry x="232" y="552" width="214.5" height="78" as="geometry" />
        </mxCell>
        <mxCell id="W28e_mkVM-K-JE9_rfFs-40" value="&lt;font style=&quot;font-size: 14px;&quot;&gt;注册&lt;/font&gt;" style="text;html=1;align=center;verticalAlign=middle;whiteSpace=wrap;rounded=0;" vertex="1" parent="1">
          <mxGeometry x="760" y="840" width="60" height="30" as="geometry" />
        </mxCell>
        <mxCell id="W28e_mkVM-K-JE9_rfFs-45" value="" style="rounded=1;whiteSpace=wrap;html=1;fillColor=#f5f5f5;strokeColor=#666666;fontColor=#333333;" vertex="1" parent="1">
          <mxGeometry x="378" y="717" width="313" height="351" as="geometry" />
        </mxCell>
        <mxCell id="W28e_mkVM-K-JE9_rfFs-46" value="&lt;font style=&quot;font-size: 14px;&quot;&gt;服务提供者实例1&lt;/font&gt;&lt;div&gt;&lt;font style=&quot;font-size: 14px;&quot;&gt;192.168.1.1:80&lt;/font&gt;&lt;/div&gt;" style="rounded=1;whiteSpace=wrap;html=1;fillColor=#d5e8d4;strokeColor=#82b366;" vertex="1" parent="1">
          <mxGeometry x="553" y="780" width="120" height="60" as="geometry" />
        </mxCell>
        <mxCell id="W28e_mkVM-K-JE9_rfFs-47" value="&lt;font style=&quot;font-size: 14px;&quot;&gt;服务提供者实例2&lt;/font&gt;&lt;div&gt;&lt;font style=&quot;font-size: 14px;&quot;&gt;192.168.1.2:80&lt;br&gt;&lt;/font&gt;&lt;/div&gt;" style="rounded=1;whiteSpace=wrap;html=1;fillColor=#d5e8d4;strokeColor=#82b366;" vertex="1" parent="1">
          <mxGeometry x="553" y="876.5" width="120" height="60" as="geometry" />
        </mxCell>
        <mxCell id="W28e_mkVM-K-JE9_rfFs-48" value="&lt;font style=&quot;font-size: 14px;&quot;&gt;服务提供者实例3&lt;/font&gt;&lt;div&gt;&lt;font style=&quot;font-size: 14px;&quot;&gt;192.168.1.3:80&lt;br&gt;&lt;/font&gt;&lt;/div&gt;" style="rounded=1;whiteSpace=wrap;html=1;fillColor=#d5e8d4;strokeColor=#82b366;" vertex="1" parent="1">
          <mxGeometry x="555" y="963" width="120" height="60" as="geometry" />
        </mxCell>
        <mxCell id="W28e_mkVM-K-JE9_rfFs-51" style="rounded=0;orthogonalLoop=1;jettySize=auto;html=1;exitX=1;exitY=0.5;exitDx=0;exitDy=0;dashed=1;" edge="1" parent="1">
          <mxGeometry relative="1" as="geometry">
            <mxPoint x="430" y="906.5" as="sourcePoint" />
            <mxPoint x="551" y="829" as="targetPoint" />
          </mxGeometry>
        </mxCell>
        <mxCell id="W28e_mkVM-K-JE9_rfFs-52" style="edgeStyle=orthogonalEdgeStyle;rounded=0;orthogonalLoop=1;jettySize=auto;html=1;strokeColor=#FF3333;" edge="1" parent="1" target="W28e_mkVM-K-JE9_rfFs-47">
          <mxGeometry relative="1" as="geometry">
            <mxPoint x="430" y="906.5" as="sourcePoint" />
          </mxGeometry>
        </mxCell>
        <mxCell id="W28e_mkVM-K-JE9_rfFs-53" style="rounded=0;orthogonalLoop=1;jettySize=auto;html=1;exitX=1;exitY=0.5;exitDx=0;exitDy=0;entryX=0;entryY=0.5;entryDx=0;entryDy=0;dashed=1;" edge="1" parent="1" target="W28e_mkVM-K-JE9_rfFs-48">
          <mxGeometry relative="1" as="geometry">
            <mxPoint x="430" y="906.5" as="sourcePoint" />
          </mxGeometry>
        </mxCell>
        <mxCell id="W28e_mkVM-K-JE9_rfFs-56" value="" style="endArrow=none;html=1;rounded=0;exitX=0.006;exitY=0.547;exitDx=0;exitDy=0;exitPerimeter=0;strokeColor=#FF3333;" edge="1" parent="1" source="W28e_mkVM-K-JE9_rfFs-45">
          <mxGeometry width="50" height="50" relative="1" as="geometry">
            <mxPoint x="350" y="909" as="sourcePoint" />
            <mxPoint x="430" y="906" as="targetPoint" />
          </mxGeometry>
        </mxCell>
        <mxCell id="W28e_mkVM-K-JE9_rfFs-59" value="" style="endArrow=classic;html=1;rounded=0;entryX=1;entryY=0.5;entryDx=0;entryDy=0;" edge="1" parent="1" target="W28e_mkVM-K-JE9_rfFs-31">
          <mxGeometry width="50" height="50" relative="1" as="geometry">
            <mxPoint x="720" y="591" as="sourcePoint" />
            <mxPoint x="622" y="620" as="targetPoint" />
          </mxGeometry>
        </mxCell>
        <mxCell id="W28e_mkVM-K-JE9_rfFs-61" value="" style="endArrow=none;dashed=1;html=1;rounded=0;" edge="1" parent="1">
          <mxGeometry width="50" height="50" relative="1" as="geometry">
            <mxPoint x="691" y="910" as="sourcePoint" />
            <mxPoint x="752" y="910" as="targetPoint" />
          </mxGeometry>
        </mxCell>
        <mxCell id="W28e_mkVM-K-JE9_rfFs-63" value="" style="endArrow=none;dashed=1;html=1;rounded=0;exitX=1;exitY=0.279;exitDx=0;exitDy=0;exitPerimeter=0;" edge="1" parent="1" source="W28e_mkVM-K-JE9_rfFs-45">
          <mxGeometry width="50" height="50" relative="1" as="geometry">
            <mxPoint x="709" y="829" as="sourcePoint" />
            <mxPoint x="723" y="815" as="targetPoint" />
          </mxGeometry>
        </mxCell>
        <mxCell id="W28e_mkVM-K-JE9_rfFs-64" value="" style="endArrow=none;dashed=1;html=1;rounded=0;" edge="1" parent="1">
          <mxGeometry width="50" height="50" relative="1" as="geometry">
            <mxPoint x="693" y="995" as="sourcePoint" />
            <mxPoint x="790" y="995" as="targetPoint" />
          </mxGeometry>
        </mxCell>
        <mxCell id="W28e_mkVM-K-JE9_rfFs-65" value="" style="endArrow=none;dashed=1;html=1;rounded=0;" edge="1" parent="1" source="W28e_mkVM-K-JE9_rfFs-42">
          <mxGeometry width="50" height="50" relative="1" as="geometry">
            <mxPoint x="723" y="814" as="sourcePoint" />
            <mxPoint x="718" y="589" as="targetPoint" />
          </mxGeometry>
        </mxCell>
        <mxCell id="W28e_mkVM-K-JE9_rfFs-66" value="" style="endArrow=none;dashed=1;html=1;dashPattern=1 3;strokeWidth=2;rounded=0;" edge="1" parent="1" source="W28e_mkVM-K-JE9_rfFs-41">
          <mxGeometry width="50" height="50" relative="1" as="geometry">
            <mxPoint x="754" y="910" as="sourcePoint" />
            <mxPoint x="751" y="593" as="targetPoint" />
          </mxGeometry>
        </mxCell>
        <mxCell id="W28e_mkVM-K-JE9_rfFs-67" value="" style="endArrow=none;dashed=1;html=1;rounded=0;" edge="1" parent="1">
          <mxGeometry width="50" height="50" relative="1" as="geometry">
            <mxPoint x="791" y="994" as="sourcePoint" />
            <mxPoint x="785" y="591" as="targetPoint" />
          </mxGeometry>
        </mxCell>
        <mxCell id="W28e_mkVM-K-JE9_rfFs-68" value="" style="endArrow=none;dashed=1;html=1;rounded=0;" edge="1" parent="1">
          <mxGeometry width="50" height="50" relative="1" as="geometry">
            <mxPoint x="718" y="590.5" as="sourcePoint" />
            <mxPoint x="788" y="590.5" as="targetPoint" />
          </mxGeometry>
        </mxCell>
        <mxCell id="W28e_mkVM-K-JE9_rfFs-69" value="" style="endArrow=none;dashed=1;html=1;rounded=0;" edge="1" parent="1" target="W28e_mkVM-K-JE9_rfFs-42">
          <mxGeometry width="50" height="50" relative="1" as="geometry">
            <mxPoint x="723" y="814" as="sourcePoint" />
            <mxPoint x="718" y="589" as="targetPoint" />
          </mxGeometry>
        </mxCell>
        <mxCell id="W28e_mkVM-K-JE9_rfFs-42" value="&lt;font style=&quot;font-size: 14px;&quot;&gt;注册&lt;/font&gt;" style="text;html=1;align=center;verticalAlign=middle;whiteSpace=wrap;rounded=0;" vertex="1" parent="1">
          <mxGeometry x="688" y="641" width="60" height="30" as="geometry" />
        </mxCell>
        <mxCell id="W28e_mkVM-K-JE9_rfFs-70" value="" style="endArrow=none;dashed=1;html=1;dashPattern=1 3;strokeWidth=2;rounded=0;" edge="1" parent="1" target="W28e_mkVM-K-JE9_rfFs-41">
          <mxGeometry width="50" height="50" relative="1" as="geometry">
            <mxPoint x="754" y="910" as="sourcePoint" />
            <mxPoint x="754" y="591" as="targetPoint" />
          </mxGeometry>
        </mxCell>
        <mxCell id="W28e_mkVM-K-JE9_rfFs-41" value="&lt;font style=&quot;font-size: 14px;&quot;&gt;注册&lt;/font&gt;" style="text;html=1;align=center;verticalAlign=middle;whiteSpace=wrap;rounded=0;" vertex="1" parent="1">
          <mxGeometry x="721" y="697" width="60" height="30" as="geometry" />
        </mxCell>
        <mxCell id="W28e_mkVM-K-JE9_rfFs-73" value="" style="endArrow=none;html=1;rounded=0;exitX=1;exitY=0.5;exitDx=0;exitDy=0;" edge="1" parent="1" source="W28e_mkVM-K-JE9_rfFs-24">
          <mxGeometry width="50" height="50" relative="1" as="geometry">
            <mxPoint x="240" y="932" as="sourcePoint" />
            <mxPoint x="377" y="908" as="targetPoint" />
          </mxGeometry>
        </mxCell>
        <mxCell id="W28e_mkVM-K-JE9_rfFs-74" value="&lt;font style=&quot;font-size: 14px;&quot;&gt;调用&lt;/font&gt;" style="text;html=1;align=center;verticalAlign=middle;whiteSpace=wrap;rounded=0;" vertex="1" parent="1">
          <mxGeometry x="259" y="878" width="60" height="30" as="geometry" />
        </mxCell>
        <mxCell id="W28e_mkVM-K-JE9_rfFs-75" style="edgeStyle=orthogonalEdgeStyle;rounded=0;orthogonalLoop=1;jettySize=auto;html=1;entryX=0.421;entryY=0.008;entryDx=0;entryDy=0;entryPerimeter=0;" edge="1" parent="1" source="W28e_mkVM-K-JE9_rfFs-31" target="W28e_mkVM-K-JE9_rfFs-24">
          <mxGeometry relative="1" as="geometry">
            <Array as="points">
              <mxPoint x="113" y="591" />
            </Array>
          </mxGeometry>
        </mxCell>
        <mxCell id="W28e_mkVM-K-JE9_rfFs-76" value="&lt;span style=&quot;color: rgb(0, 0, 0); font-family: Helvetica; font-size: 14px; font-style: normal; font-variant-ligatures: normal; font-variant-caps: normal; font-weight: 400; letter-spacing: normal; orphans: 2; text-align: center; text-indent: 0px; text-transform: none; widows: 2; word-spacing: 0px; -webkit-text-stroke-width: 0px; white-space: normal; background-color: rgb(251, 251, 251); text-decoration-thickness: initial; text-decoration-style: initial; text-decoration-color: initial; display: inline !important; float: none;&quot;&gt;拉取服务提供者信息列表&lt;/span&gt;" style="text;whiteSpace=wrap;html=1;" vertex="1" parent="1">
          <mxGeometry x="121" y="685" width="121" height="39" as="geometry" />
        </mxCell>
        <mxCell id="W28e_mkVM-K-JE9_rfFs-77" value="Ribbon根据负载均衡策略选择一个具体的服务实例" style="text;html=1;align=center;verticalAlign=middle;whiteSpace=wrap;rounded=0;" vertex="1" parent="1">
          <mxGeometry x="242" y="932" width="112" height="33" as="geometry" />
        </mxCell>
      </root>
    </mxGraphModel>
  </diagram>
  <diagram id="4CO4FJB10wt54bA3oMDJ" name="第 5 页">
    <mxGraphModel dx="943" dy="808" grid="0" gridSize="10" guides="1" tooltips="1" connect="1" arrows="1" fold="1" page="1" pageScale="1" pageWidth="827" pageHeight="1169" math="0" shadow="0">
      <root>
        <mxCell id="0" />
        <mxCell id="1" parent="0" />
        <mxCell id="MBibmdiTiWnVZYEUmqm3-1" value="" style="rounded=1;whiteSpace=wrap;html=1;fillColor=#f5f5f5;strokeColor=#666666;fontColor=#333333;" vertex="1" parent="1">
          <mxGeometry x="167" y="403" width="169" height="232" as="geometry" />
        </mxCell>
        <mxCell id="MBibmdiTiWnVZYEUmqm3-4" value="&lt;div&gt;&lt;font style=&quot;font-size: 14px;&quot;&gt;target&lt;/font&gt;&lt;/div&gt;&lt;div&gt;&lt;span style=&quot;font-size: 14px;&quot;&gt;Metric_1=v1&lt;/span&gt;&lt;/div&gt;&lt;div&gt;&lt;span style=&quot;font-size: 14px;&quot;&gt;Metric_2=v1&lt;/span&gt;&lt;span style=&quot;font-size: 14px;&quot;&gt;&lt;br&gt;&lt;/span&gt;&lt;/div&gt;" style="rounded=1;whiteSpace=wrap;html=1;fillColor=#d5e8d4;strokeColor=#82b366;" vertex="1" parent="1">
          <mxGeometry x="195" y="516" width="120" height="60" as="geometry" />
        </mxCell>
        <mxCell id="MBibmdiTiWnVZYEUmqm3-5" value="&lt;font color=&quot;#ff3333&quot; style=&quot;font-size: 14px;&quot;&gt;T1时刻采样值&lt;/font&gt;" style="text;html=1;align=center;verticalAlign=middle;whiteSpace=wrap;rounded=0;" vertex="1" parent="1">
          <mxGeometry x="198.5" y="439" width="113" height="30" as="geometry" />
        </mxCell>
        <mxCell id="MBibmdiTiWnVZYEUmqm3-21" style="edgeStyle=orthogonalEdgeStyle;rounded=0;orthogonalLoop=1;jettySize=auto;html=1;" edge="1" parent="1" source="MBibmdiTiWnVZYEUmqm3-7">
          <mxGeometry relative="1" as="geometry">
            <mxPoint x="825" y="508" as="targetPoint" />
          </mxGeometry>
        </mxCell>
        <mxCell id="MBibmdiTiWnVZYEUmqm3-7" value="&lt;font style=&quot;font-size: 14px;&quot;&gt;Prometheus&lt;/font&gt;" style="rounded=1;whiteSpace=wrap;html=1;fillColor=#fff2cc;strokeColor=#d6b656;" vertex="1" parent="1">
          <mxGeometry x="6" y="478" width="103" height="60" as="geometry" />
        </mxCell>
        <mxCell id="MBibmdiTiWnVZYEUmqm3-12" value="" style="rounded=1;whiteSpace=wrap;html=1;fillColor=#f5f5f5;strokeColor=#666666;fontColor=#333333;" vertex="1" parent="1">
          <mxGeometry x="361" y="405" width="169" height="232" as="geometry" />
        </mxCell>
        <mxCell id="MBibmdiTiWnVZYEUmqm3-13" value="&lt;div&gt;&lt;font style=&quot;font-size: 14px;&quot;&gt;target&lt;/font&gt;&lt;/div&gt;&lt;div&gt;&lt;span style=&quot;font-size: 14px;&quot;&gt;Metric_1=v2&lt;/span&gt;&lt;/div&gt;&lt;div&gt;&lt;span style=&quot;font-size: 14px;&quot;&gt;Metric_2=v2&lt;/span&gt;&lt;span style=&quot;font-size: 14px;&quot;&gt;&lt;br&gt;&lt;/span&gt;&lt;/div&gt;" style="rounded=1;whiteSpace=wrap;html=1;fillColor=#d5e8d4;strokeColor=#82b366;" vertex="1" parent="1">
          <mxGeometry x="389" y="518" width="120" height="60" as="geometry" />
        </mxCell>
        <mxCell id="MBibmdiTiWnVZYEUmqm3-14" value="&lt;font color=&quot;#ff3333&quot; style=&quot;font-size: 14px;&quot;&gt;T2时刻采样值&lt;/font&gt;" style="text;html=1;align=center;verticalAlign=middle;whiteSpace=wrap;rounded=0;" vertex="1" parent="1">
          <mxGeometry x="392.5" y="441" width="113" height="30" as="geometry" />
        </mxCell>
        <mxCell id="MBibmdiTiWnVZYEUmqm3-18" value="" style="rounded=1;whiteSpace=wrap;html=1;fillColor=#f5f5f5;strokeColor=#666666;fontColor=#333333;" vertex="1" parent="1">
          <mxGeometry x="579" y="405" width="169" height="232" as="geometry" />
        </mxCell>
        <mxCell id="MBibmdiTiWnVZYEUmqm3-19" value="&lt;font color=&quot;#ff3333&quot; style=&quot;font-size: 14px;&quot;&gt;T3时刻采样值&lt;/font&gt;" style="text;html=1;align=center;verticalAlign=middle;whiteSpace=wrap;rounded=0;" vertex="1" parent="1">
          <mxGeometry x="612" y="437" width="113" height="30" as="geometry" />
        </mxCell>
        <mxCell id="MBibmdiTiWnVZYEUmqm3-20" value="&lt;div&gt;&lt;font style=&quot;font-size: 14px;&quot;&gt;target&lt;/font&gt;&lt;/div&gt;&lt;div&gt;&lt;span style=&quot;font-size: 14px;&quot;&gt;Metric_1=v3&lt;/span&gt;&lt;/div&gt;&lt;div&gt;&lt;span style=&quot;font-size: 14px;&quot;&gt;Metric_2=v3&lt;/span&gt;&lt;/div&gt;" style="rounded=1;whiteSpace=wrap;html=1;fillColor=#d5e8d4;strokeColor=#82b366;" vertex="1" parent="1">
          <mxGeometry x="605" y="521" width="120" height="60" as="geometry" />
        </mxCell>
        <mxCell id="MBibmdiTiWnVZYEUmqm3-23" value="&lt;font style=&quot;font-size: 14px;&quot;&gt;时间线&lt;/font&gt;" style="text;html=1;align=center;verticalAlign=middle;whiteSpace=wrap;rounded=0;" vertex="1" parent="1">
          <mxGeometry x="762" y="459" width="60" height="30" as="geometry" />
        </mxCell>
        <mxCell id="MBibmdiTiWnVZYEUmqm3-24" style="edgeStyle=orthogonalEdgeStyle;rounded=0;orthogonalLoop=1;jettySize=auto;html=1;exitX=0.5;exitY=1;exitDx=0;exitDy=0;" edge="1" parent="1" source="MBibmdiTiWnVZYEUmqm3-23" target="MBibmdiTiWnVZYEUmqm3-23">
          <mxGeometry relative="1" as="geometry" />
        </mxCell>
      </root>
    </mxGraphModel>
  </diagram>
</mxfile>
